<svg width="3765" height="184" viewBox="0 0 3765 184" fill="none" xmlns="http://www.w3.org/2000/svg">
<rect x="0.257812" y="0.232422" width="2276.28" height="182.15" fill="#141415"/>
<line x1="65.0898" y1="0.232422" x2="65.0898" y2="183.018" stroke="#084EFF" stroke-width="2"/>
<line x1="136.329" y1="0.232422" x2="136.329" y2="183.018" stroke="#084EFF" stroke-width="2"/>
<line x1="207.568" y1="0.232422" x2="207.568" y2="183.018" stroke="#084EFF" stroke-width="2"/>
<line x1="278.808" y1="0.232422" x2="278.808" y2="183.018" stroke="#084EFF" stroke-width="2"/>
<line x1="350.047" y1="0.232422" x2="350.047" y2="183.018" stroke="#084EFF" stroke-width="2"/>
<line x1="421.286" y1="0.232422" x2="421.286" y2="183.018" stroke="#084EFF" stroke-width="2"/>
<line x1="492.525" y1="0.232422" x2="492.525" y2="183.018" stroke="#084EFF" stroke-width="2"/>
<line x1="563.765" y1="0.232422" x2="563.765" y2="183.018" stroke="#084EFF" stroke-width="2"/>
<line x1="635.004" y1="0.232422" x2="635.004" y2="183.018" stroke="#084EFF" stroke-width="2"/>
<line x1="706.243" y1="0.232422" x2="706.243" y2="183.018" stroke="#084EFF" stroke-width="2"/>
<line x1="777.482" y1="0.232422" x2="777.482" y2="183.018" stroke="#084EFF" stroke-width="2"/>
<line x1="919.961" y1="0.232422" x2="919.961" y2="183.018" stroke="#084EFF" stroke-width="2"/>
<line x1="848.722" y1="0.232422" x2="848.722" y2="183.018" stroke="#084EFF" stroke-width="2"/>
<line x1="991.2" y1="0.232422" x2="991.2" y2="183.018" stroke="#084EFF" stroke-width="2"/>
<line x1="1062.44" y1="0.232422" x2="1062.44" y2="183.018" stroke="#084EFF" stroke-width="2"/>
<line x1="1133.68" y1="0.232422" x2="1133.68" y2="183.018" stroke="#084EFF" stroke-width="2"/>
<line x1="1204.92" y1="0.232422" x2="1204.92" y2="183.018" stroke="#084EFF" stroke-width="2"/>
<line x1="1276.16" y1="0.232422" x2="1276.16" y2="183.018" stroke="#084EFF" stroke-width="2"/>
<line x1="1347.4" y1="0.232422" x2="1347.4" y2="183.018" stroke="#084EFF" stroke-width="2"/>
<line x1="1418.64" y1="0.232422" x2="1418.64" y2="183.018" stroke="#084EFF" stroke-width="2"/>
<line x1="1489.88" y1="0.232422" x2="1489.88" y2="183.018" stroke="#084EFF" stroke-width="2"/>
<line x1="1561.11" y1="0.232422" x2="1561.11" y2="183.018" stroke="#084EFF" stroke-width="2"/>
<line x1="1632.35" y1="0.232422" x2="1632.35" y2="183.018" stroke="#084EFF" stroke-width="2"/>
<line x1="1703.59" y1="0.232422" x2="1703.59" y2="183.018" stroke="#084EFF" stroke-width="2"/>
<line x1="1774.83" y1="0.232422" x2="1774.83" y2="183.018" stroke="#084EFF" stroke-width="2"/>
<line x1="1846.07" y1="0.232422" x2="1846.07" y2="183.018" stroke="#084EFF" stroke-width="2"/>
<line x1="0.257812" y1="60.0459" x2="1919.84" y2="60.0459" stroke="#084EFF" stroke-width="2"/>
<line x1="0.257812" y1="126.321" x2="1919.84" y2="126.321" stroke="#084EFF" stroke-width="2"/>
<line x1="1909.9" y1="0.232422" x2="1909.9" y2="183.018" stroke="#084EFF" stroke-width="2"/>
<line x1="1981.14" y1="0.232422" x2="1981.14" y2="183.018" stroke="#084EFF" stroke-width="2"/>
<line x1="2052.38" y1="0.232422" x2="2052.38" y2="183.018" stroke="#084EFF" stroke-width="2"/>
<line x1="2123.62" y1="0.232422" x2="2123.62" y2="183.018" stroke="#084EFF" stroke-width="2"/>
<line x1="2194.86" y1="0.232422" x2="2194.86" y2="183.018" stroke="#084EFF" stroke-width="2"/>
<line x1="2266.1" y1="0.232422" x2="2266.1" y2="183.018" stroke="#084EFF" stroke-width="2"/>
<line x1="2337.34" y1="0.232422" x2="2337.34" y2="183.018" stroke="#084EFF" stroke-width="2"/>
<line x1="2408.58" y1="0.232422" x2="2408.58" y2="183.018" stroke="#084EFF" stroke-width="2"/>
<line x1="2479.82" y1="0.232422" x2="2479.82" y2="183.018" stroke="#084EFF" stroke-width="2"/>
<line x1="2551.06" y1="0.232422" x2="2551.06" y2="183.018" stroke="#084EFF" stroke-width="2"/>
<line x1="2622.29" y1="0.232422" x2="2622.29" y2="183.018" stroke="#084EFF" stroke-width="2"/>
<line x1="2764.77" y1="0.232422" x2="2764.77" y2="183.018" stroke="#084EFF" stroke-width="2"/>
<line x1="2693.53" y1="0.232422" x2="2693.53" y2="183.018" stroke="#084EFF" stroke-width="2"/>
<line x1="2836.01" y1="0.232422" x2="2836.01" y2="183.018" stroke="#084EFF" stroke-width="2"/>
<line x1="2907.25" y1="0.232422" x2="2907.25" y2="183.018" stroke="#084EFF" stroke-width="2"/>
<line x1="2978.49" y1="0.232422" x2="2978.49" y2="183.018" stroke="#084EFF" stroke-width="2"/>
<line x1="3049.73" y1="0.232422" x2="3049.73" y2="183.018" stroke="#084EFF" stroke-width="2"/>
<line x1="3120.97" y1="0.232422" x2="3120.97" y2="183.018" stroke="#084EFF" stroke-width="2"/>
<line x1="3192.21" y1="0.232422" x2="3192.21" y2="183.018" stroke="#084EFF" stroke-width="2"/>
<line x1="3263.45" y1="0.232422" x2="3263.45" y2="183.018" stroke="#084EFF" stroke-width="2"/>
<line x1="3334.69" y1="0.232422" x2="3334.69" y2="183.018" stroke="#084EFF" stroke-width="2"/>
<line x1="3405.93" y1="0.232422" x2="3405.93" y2="183.018" stroke="#084EFF" stroke-width="2"/>
<line x1="3477.17" y1="0.232422" x2="3477.17" y2="183.018" stroke="#084EFF" stroke-width="2"/>
<line x1="3548.41" y1="0.232422" x2="3548.41" y2="183.018" stroke="#084EFF" stroke-width="2"/>
<line x1="3619.64" y1="0.232422" x2="3619.64" y2="183.018" stroke="#084EFF" stroke-width="2"/>
<line x1="3690.88" y1="0.232422" x2="3690.88" y2="183.018" stroke="#084EFF" stroke-width="2"/>
<line x1="1845.07" y1="60.0459" x2="3764.66" y2="60.0459" stroke="#084EFF" stroke-width="2"/>
<line x1="1845.07" y1="126.321" x2="3764.66" y2="126.321" stroke="#084EFF" stroke-width="2"/>
</svg>
