<svg width="3765" height="184" viewBox="0 0 3765 184" fill="none" xmlns="http://www.w3.org/2000/svg">
<rect x="0.257812" y="0.232422" width="2276.28" height="182.15" fill="#141415"/>
<line x1="65.0898" y1="0.232422" x2="65.0898" y2="183.018" stroke="#084EFF" stroke-width="2"/>
<line x1="136.329" y1="0.232422" x2="136.329" y2="183.018" stroke="#084EFF" stroke-width="2"/>
<line x1="207.568" y1="0.232422" x2="207.568" y2="183.018" stroke="#084EFF" stroke-width="2"/>
<line x1="278.808" y1="0.232422" x2="278.808" y2="183.018" stroke="#084EFF" stroke-width="2"/>
<line x1="350.047" y1="0.232422" x2="350.047" y2="183.018" stroke="#084EFF" stroke-width="2"/>
<line x1="421.286" y1="0.232422" x2="421.286" y2="183.018" stroke="#084EFF" stroke-width="2"/>
<line x1="492.525" y1="0.232422" x2="492.525" y2="183.018" stroke="#084EFF" stroke-width="2"/>
<line x1="563.765" y1="0.232422" x2="563.765" y2="183.018" stroke="#084EFF" stroke-width="2"/>
<line x1="635.004" y1="0.232422" x2="635.004" y2="183.018" stroke="#084EFF" stroke-width="2"/>
<line x1="706.243" y1="0.232422" x2="706.243" y2="183.018" stroke="#084EFF" stroke-width="2"/>
<line x1="777.482" y1="0.232422" x2="777.482" y2="183.018" stroke="#084EFF" stroke-width="2"/>
<line x1="919.961" y1="0.232422" x2="919.961" y2="183.018" stroke="#084EFF" stroke-width="2"/>
<line x1="848.722" y1="0.232422" x2="848.722" y2="183.018" stroke="#084EFF" stroke-width="2"/>
<line x1="991.2" y1="0.232422" x2="991.2" y2="183.018" stroke="#084EFF" stroke-width="2"/>
<line x1="1062.44" y1="0.232422" x2="1062.44" y2="183.018" stroke="#084EFF" stroke-width="2"/>
<line x1="1133.68" y1="0.232422" x2="1133.68" y2="183.018" stroke="#084EFF" stroke-width="2"/>
<line x1="1204.92" y1="0.232422" x2="1204.92" y2="183.018" stroke="#084EFF" stroke-width="2"/>
<line x1="1276.16" y1="0.232422" x2="1276.16" y2="183.018" stroke="#084EFF" stroke-width="2"/>
<line x1="1347.4" y1="0.232422" x2="1347.4" y2="183.018" stroke="#084EFF" stroke-width="2"/>
<line x1="1418.64" y1="0.232422" x2="1418.64" y2="183.018" stroke="#084EFF" stroke-width="2"/>
<line x1="1489.88" y1="0.232422" x2="1489.88" y2="183.018" stroke="#084EFF" stroke-width="2"/>
<line x1="1561.11" y1="0.232422" x2="1561.11" y2="183.018" stroke="#084EFF" stroke-width="2"/>
<line x1="1632.35" y1="0.232422" x2="1632.35" y2="183.018" stroke="#084EFF" stroke-width="2"/>
<line x1="1703.59" y1="0.232422" x2="1703.59" y2="183.018" stroke="#084EFF" stroke-width="2"/>
<line x1="1774.83" y1="0.232422" x2="1774.83" y2="183.018" stroke="#084EFF" stroke-width="2"/>
<line x1="1846.07" y1="0.232422" x2="1846.07" y2="183.018" stroke="#084EFF" stroke-width="2"/>
<line x1="0.257812" y1="60.0459" x2="1919.84" y2="60.0459" stroke="#084EFF" stroke-width="2"/>
<line x1="0.257812" y1="126.321" x2="1919.84" y2="126.321" stroke="#084EFF" stroke-width="2"/>
<line x1="1909.9" y1="0.232422" x2="1909.9" y2="183.018" stroke="#084EFF" stroke-width="2"/>
<line x1="1981.14" y1="0.232422" x2="1981.14" y2="183.018" stroke="#084EFF" stroke-width="2"/>
<line x1="2052.38" y1="0.232422" x2="2052.38" y2="183.018" stroke="#084EFF" stroke-width="2"/>
<line x1="2123.62" y1="0.232422" x2="2123.62" y2="183.018" stroke="#084EFF" stroke-width="2"/>
<line x1="2194.86" y1="0.232422" x2="2194.86" y2="183.018" stroke="#084EFF" stroke-width="2"/>
<line x1="2266.1" y1="0.232422" x2="2266.1" y2="183.018" stroke="#084EFF" stroke-width="2"/>
<line x1="2337.34" y1="0.232422" x2="2337.34" y2="183.018" stroke="#084EFF" stroke-width="2"/>
<line x1="2408.58" y1="0.232422" x2="2408.58" y2="183.018" stroke="#084EFF" stroke-width="2"/>
<line x1="2479.82" y1="0.232422" x2="2479.82" y2="183.018" stroke="#084EFF" stroke-width="2"/>
<line x1="2551.06" y1="0.232422" x2="2551.06" y2="183.018" stroke="#084EFF" stroke-width="2"/>
<line x1="2622.29" y1="0.232422" x2="2622.29" y2="183.018" stroke="#084EFF" stroke-width="2"/>
<line x1="2764.77" y1="0.232422" x2="2764.77" y2="183.018" stroke="#084EFF" stroke-width="2"/>
<line x1="2693.53" y1="0.232422" x2="2693.53" y2="183.018" stroke="#084EFF" stroke-width="2"/>
<line x1="2836.01" y1="0.232422" x2="2836.01" y2="183.018" stroke="#084EFF" stroke-width="2"/>
<line x1="2907.25" y1="0.232422" x2="2907.25" y2="183.018" stroke="#084EFF" stroke-width="2"/>
<line x1="2978.49" y1="0.232422" x2="2978.49" y2="183.018" stroke="#084EFF" stroke-width="2"/>
<line x1="3049.73" y1="0.232422" x2="3049.73" y2="183.018" stroke="#084EFF" stroke-width="2"/>
<line x1="3120.97" y1="0.232422" x2="3120.97" y2="183.018" stroke="#084EFF" stroke-width="2"/>
<line x1="3192.21" y1="0.232422" x2="3192.21" y2="183.018" stroke="#084EFF" stroke-width="2"/>
<line x1="3263.45" y1="0.232422" x2="3263.45" y2="183.018" stroke="#084EFF" stroke-width="2"/>
<line x1="3334.69" y1="0.232422" x2="3334.69" y2="183.018" stroke="#084EFF" stroke-width="2"/>
<line x1="3405.93" y1="0.232422" x2="3405.93" y2="183.018" stroke="#084EFF" stroke-width="2"/>
<line x1="3477.17" y1="0.232422" x2="3477.17" y2="183.018" stroke="#084EFF" stroke-width="2"/>
<line x1="3548.41" y1="0.232422" x2="3548.41" y2="183.018" stroke="#084EFF" stroke-width="2"/>
<line x1="3619.64" y1="0.232422" x2="3619.64" y2="183.018" stroke="#084EFF" stroke-width="2"/>
<line x1="3690.88" y1="0.232422" x2="3690.88" y2="183.018" stroke="#084EFF" stroke-width="2"/>
<line x1="1845.07" y1="60.0459" x2="3764.66" y2="60.0459" stroke="#084EFF" stroke-width="2"/>
<line x1="1845.07" y1="126.321" x2="3764.66" y2="126.321" stroke="#084EFF" stroke-width="2"/>
<path d="M104.816 86.9479H114.266V97.0279H115.616V101.888H112.556L112.376 99.5479H105.356L105.176 101.888H102.116V97.0279H103.286C103.634 96.6319 103.892 96.1879 104.06 95.6959C104.24 95.1919 104.342 94.7359 104.366 94.3279L104.816 86.9479ZM111.026 97.0279V89.4679H107.696L107.426 93.9679C107.39 94.6999 107.21 95.4379 106.886 96.1819C106.754 96.4939 106.604 96.7759 106.436 97.0279H111.026ZM123.09 90.0079H126.42V99.5479H123.27V94.3279L120.21 99.5479H116.88V90.0079H120.03V95.2279L123.09 90.0079ZM127.678 97.2079C129.97 97.3879 131.77 97.4779 133.078 97.4779C133.258 97.4779 133.408 97.4179 133.528 97.2979C133.648 97.1779 133.708 97.0279 133.708 96.8479V96.5779C133.708 96.3979 133.648 96.2479 133.528 96.1279C133.408 96.0079 133.258 95.9479 133.078 95.9479H129.118V93.6979H132.718C132.898 93.6979 133.048 93.6379 133.168 93.5179C133.288 93.3979 133.348 93.2479 133.348 93.0679V92.8879C133.348 92.7079 133.288 92.5579 133.168 92.4379C133.048 92.3179 132.898 92.2579 132.718 92.2579H127.858V90.0079H133.798C134.602 90.0079 135.25 90.2479 135.742 90.7279C136.246 91.1959 136.498 91.7239 136.498 92.3119C136.498 93.5119 135.958 94.2439 134.878 94.5079C135.418 94.6039 135.88 94.8679 136.264 95.2999C136.66 95.7319 136.858 96.3319 136.858 97.0999C136.858 97.8679 136.612 98.4979 136.12 98.9899C135.628 99.4819 134.974 99.7279 134.158 99.7279C132.154 99.7279 129.994 99.6079 127.678 99.3679V97.2079ZM141.895 97.2079C142.531 97.2079 143.251 97.0879 144.055 96.8479V95.7679H141.445C141.265 95.7679 141.115 95.8279 140.995 95.9479C140.875 96.0679 140.815 96.2179 140.815 96.3979V96.5779C140.815 96.7579 140.875 96.9079 140.995 97.0279C141.115 97.1479 141.265 97.2079 141.445 97.2079H141.895ZM138.565 90.1879C140.761 89.9479 142.741 89.8279 144.505 89.8279C145.321 89.8279 145.975 90.0739 146.467 90.5659C146.959 91.0579 147.205 91.7119 147.205 92.5279V99.5479H144.415L144.235 98.6479C143.671 99.0199 143.089 99.2959 142.489 99.4759C141.901 99.6439 141.403 99.7279 140.995 99.7279H140.365C139.549 99.7279 138.895 99.4819 138.403 98.9899C137.911 98.4979 137.665 97.8439 137.665 97.0279V96.2179C137.665 95.4019 137.911 94.7479 138.403 94.2559C138.895 93.7639 139.549 93.5179 140.365 93.5179H144.055V92.7979C144.055 92.6179 143.995 92.4679 143.875 92.3479C143.755 92.2279 143.605 92.1679 143.425 92.1679C142.645 92.1679 141.781 92.2039 140.833 92.2759C139.897 92.3479 139.141 92.4019 138.565 92.4379V90.1879ZM152.6 89.1079C151.04 89.1079 150.26 88.3279 150.26 86.7679V86.2279H152.6V86.6779C152.6 86.8579 152.66 87.0079 152.78 87.1279C152.9 87.2479 153.05 87.3079 153.23 87.3079H153.77C153.95 87.3079 154.1 87.2479 154.22 87.1279C154.34 87.0079 154.4 86.8579 154.4 86.6779V86.2279H156.74V86.7679C156.74 88.3279 155.96 89.1079 154.4 89.1079H152.6ZM155.03 90.0079H158.36V99.5479H155.21V94.3279L152.15 99.5479H148.82V90.0079H151.97V95.2279L155.03 90.0079ZM166.548 93.5179V90.0079H169.698V99.5479H166.548V95.9479H163.308V99.5479H160.158V90.0079H163.308V93.5179H166.548ZM186.792 99.3679C184.116 99.6079 181.896 99.7279 180.132 99.7279C178.956 99.7279 178.092 99.4519 177.54 98.8999C176.988 98.3479 176.712 97.4839 176.712 96.3079V90.5479C176.712 89.2879 176.994 88.3759 177.558 87.8119C178.134 87.2359 179.052 86.9479 180.312 86.9479H186.792V89.4679H181.032C180.312 89.4679 179.952 89.8279 179.952 90.5479V96.3079C179.952 96.5839 180.03 96.8059 180.186 96.9739C180.354 97.1299 180.564 97.2079 180.816 97.2079C181.068 97.2079 181.344 97.2079 181.644 97.2079C181.944 97.1959 182.256 97.1839 182.58 97.1719C182.904 97.1599 183.228 97.1479 183.552 97.1359C183.888 97.1239 184.314 97.0999 184.83 97.0639C185.358 97.0279 186.012 96.9859 186.792 96.9379V99.3679ZM197.774 96.8479C197.774 97.7479 197.516 98.4559 197 98.9719C196.496 99.4759 195.794 99.7279 194.894 99.7279H190.754C189.854 99.7279 189.146 99.4759 188.63 98.9719C188.126 98.4559 187.874 97.7479 187.874 96.8479V92.7079C187.874 91.8079 188.126 91.1059 188.63 90.6019C189.146 90.0859 189.854 89.8279 190.754 89.8279H194.894C195.794 89.8279 196.496 90.0859 197 90.6019C197.516 91.1059 197.774 91.8079 197.774 92.7079V96.8479ZM194.624 92.9779C194.624 92.4979 194.384 92.2579 193.904 92.2579H191.744C191.264 92.2579 191.024 92.4979 191.024 92.9779V96.5779C191.024 97.0579 191.264 97.2979 191.744 97.2979H193.904C194.384 97.2979 194.624 97.0579 194.624 96.5779V92.9779ZM203.892 95.9479H202.542V99.5479H199.392V90.0079H202.542V93.5179H203.982L204.972 91.5379C205.332 90.7699 205.896 90.2479 206.664 89.9719C206.94 89.8759 207.204 89.8279 207.456 89.8279C207.864 89.8279 208.236 89.8579 208.572 89.9179L209.022 90.0079V92.4379H208.392C207.984 92.4379 207.684 92.6179 207.492 92.9779L206.592 94.7779L209.292 99.5479H205.872L203.892 95.9479ZM219.905 96.8479C219.905 97.7479 219.647 98.4559 219.131 98.9719C218.627 99.4759 217.925 99.7279 217.025 99.7279H212.885C211.985 99.7279 211.277 99.4759 210.761 98.9719C210.257 98.4559 210.005 97.7479 210.005 96.8479V92.7079C210.005 91.8079 210.257 91.1059 210.761 90.6019C211.277 90.0859 211.985 89.8279 212.885 89.8279H217.025C217.925 89.8279 218.627 90.0859 219.131 90.6019C219.647 91.1059 219.905 91.8079 219.905 92.7079V96.8479ZM216.755 92.9779C216.755 92.4979 216.515 92.2579 216.035 92.2579H213.875C213.395 92.2579 213.155 92.4979 213.155 92.9779V96.5779C213.155 97.0579 213.395 97.2979 213.875 97.2979H216.035C216.515 97.2979 216.755 97.0579 216.755 96.5779V92.9779ZM222.603 99.7279C222.087 99.7279 221.487 99.6679 220.803 99.5479V97.2079H221.523C221.979 97.2079 222.219 96.9679 222.243 96.4879L222.603 90.0079H231.243V99.5479H228.093V92.4379H225.573L225.303 97.0279C225.255 97.8439 224.985 98.4979 224.493 98.9899C224.001 99.4819 223.371 99.7279 222.603 99.7279ZM242.757 96.8479C242.757 97.7479 242.499 98.4559 241.983 98.9719C241.479 99.4759 240.777 99.7279 239.877 99.7279H235.737C234.837 99.7279 234.129 99.4759 233.613 98.9719C233.109 98.4559 232.857 97.7479 232.857 96.8479V92.7079C232.857 91.8079 233.109 91.1059 233.613 90.6019C234.129 90.0859 234.837 89.8279 235.737 89.8279H239.877C240.777 89.8279 241.479 90.0859 241.983 90.6019C242.499 91.1059 242.757 91.8079 242.757 92.7079V96.8479ZM239.607 92.9779C239.607 92.4979 239.367 92.2579 238.887 92.2579H236.727C236.247 92.2579 236.007 92.4979 236.007 92.9779V96.5779C236.007 97.0579 236.247 97.2979 236.727 97.2979H238.887C239.367 97.2979 239.607 97.0579 239.607 96.5779V92.9779ZM251.215 99.5479H244.375V90.0079H250.675C251.479 90.0079 252.127 90.2479 252.619 90.7279C253.123 91.1959 253.375 91.7239 253.375 92.3119C253.375 92.8999 253.249 93.3799 252.997 93.7519C252.745 94.1239 252.391 94.3759 251.935 94.5079C252.475 94.6039 252.937 94.8679 253.321 95.2999C253.717 95.7319 253.915 96.3079 253.915 97.0279C253.915 97.7479 253.663 98.3479 253.159 98.8279C252.667 99.3079 252.019 99.5479 251.215 99.5479ZM250.765 96.4879C250.765 96.3079 250.705 96.1579 250.585 96.0379C250.465 95.9179 250.315 95.8579 250.135 95.8579H247.525V97.3879H250.135C250.315 97.3879 250.465 97.3279 250.585 97.2079C250.705 97.0879 250.765 96.9379 250.765 96.7579V96.4879ZM250.225 92.7979C250.225 92.6179 250.165 92.4679 250.045 92.3479C249.925 92.2279 249.775 92.1679 249.595 92.1679H247.525V93.7879H249.595C249.775 93.7879 249.925 93.7279 250.045 93.6079C250.165 93.4879 250.225 93.3379 250.225 93.1579V92.7979ZM264.888 96.8479C264.888 97.7479 264.63 98.4559 264.114 98.9719C263.61 99.4759 262.908 99.7279 262.008 99.7279H257.868C256.968 99.7279 256.26 99.4759 255.744 98.9719C255.24 98.4559 254.988 97.7479 254.988 96.8479V92.7079C254.988 91.8079 255.24 91.1059 255.744 90.6019C256.26 90.0859 256.968 89.8279 257.868 89.8279H262.008C262.908 89.8279 263.61 90.0859 264.114 90.6019C264.63 91.1059 264.888 91.8079 264.888 92.7079V96.8479ZM261.738 92.9779C261.738 92.4979 261.498 92.2579 261.018 92.2579H258.858C258.378 92.2579 258.138 92.4979 258.138 92.9779V96.5779C258.138 97.0579 258.378 97.2979 258.858 97.2979H261.018C261.498 97.2979 261.738 97.0579 261.738 96.5779V92.9779ZM270.285 89.1079C268.725 89.1079 267.945 88.3279 267.945 86.7679V86.2279H270.285V86.6779C270.285 86.8579 270.345 87.0079 270.465 87.1279C270.585 87.2479 270.735 87.3079 270.915 87.3079H271.455C271.635 87.3079 271.785 87.2479 271.905 87.1279C272.025 87.0079 272.085 86.8579 272.085 86.6779V86.2279H274.425V86.7679C274.425 88.3279 273.645 89.1079 272.085 89.1079H270.285ZM272.715 90.0079H276.045V99.5479H272.895V94.3279L269.835 99.5479H266.505V90.0079H269.655V95.2279L272.715 90.0079ZM285.67 99.5479H282.16L286.93 86.9479H290.53L295.3 99.5479H291.79L290.98 97.2979H286.48L285.67 99.5479ZM287.29 94.9579H290.17L288.73 90.7279L287.29 94.9579ZM302.409 93.5179V90.0079H305.559V99.5479H302.409V95.9479H299.169V99.5479H296.019V90.0079H299.169V93.5179H302.409ZM311.137 97.2079C311.773 97.2079 312.493 97.0879 313.297 96.8479V95.7679H310.687C310.507 95.7679 310.357 95.8279 310.237 95.9479C310.117 96.0679 310.057 96.2179 310.057 96.3979V96.5779C310.057 96.7579 310.117 96.9079 310.237 97.0279C310.357 97.1479 310.507 97.2079 310.687 97.2079H311.137ZM307.807 90.1879C310.003 89.9479 311.983 89.8279 313.747 89.8279C314.563 89.8279 315.217 90.0739 315.709 90.5659C316.201 91.0579 316.447 91.7119 316.447 92.5279V99.5479H313.657L313.477 98.6479C312.913 99.0199 312.331 99.2959 311.731 99.4759C311.143 99.6439 310.645 99.7279 310.237 99.7279H309.607C308.791 99.7279 308.137 99.4819 307.645 98.9899C307.153 98.4979 306.907 97.8439 306.907 97.0279V96.2179C306.907 95.4019 307.153 94.7479 307.645 94.2559C308.137 93.7639 308.791 93.5179 309.607 93.5179H313.297V92.7979C313.297 92.6179 313.237 92.4679 313.117 92.3479C312.997 92.2279 312.847 92.1679 312.667 92.1679C311.887 92.1679 311.023 92.2039 310.075 92.2759C309.139 92.3479 308.383 92.4019 307.807 92.4379V90.1879ZM326.522 99.3679C324.278 99.6079 322.298 99.7279 320.582 99.7279C319.766 99.7279 319.112 99.4819 318.62 98.9899C318.128 98.4979 317.882 97.8439 317.882 97.0279V92.8879C317.882 91.9879 318.134 91.2859 318.638 90.7819C319.154 90.2659 319.862 90.0079 320.762 90.0079H326.522V92.4379H321.752C321.272 92.4379 321.032 92.6779 321.032 93.1579V96.6679C321.032 96.8479 321.092 96.9979 321.212 97.1179C321.332 97.2379 321.482 97.2979 321.662 97.2979C322.742 97.2979 324.362 97.2079 326.522 97.0279V99.3679ZM333.359 92.4379V99.5479H330.209V92.4379H327.239V90.0079H336.329V92.4379H333.359ZM340.844 97.2079C341.48 97.2079 342.2 97.0879 343.004 96.8479V95.7679H340.394C340.214 95.7679 340.064 95.8279 339.944 95.9479C339.824 96.0679 339.764 96.2179 339.764 96.3979V96.5779C339.764 96.7579 339.824 96.9079 339.944 97.0279C340.064 97.1479 340.214 97.2079 340.394 97.2079H340.844ZM337.514 90.1879C339.71 89.9479 341.69 89.8279 343.454 89.8279C344.27 89.8279 344.924 90.0739 345.416 90.5659C345.908 91.0579 346.154 91.7119 346.154 92.5279V99.5479H343.364L343.184 98.6479C342.62 99.0199 342.038 99.2959 341.438 99.4759C340.85 99.6439 340.352 99.7279 339.944 99.7279H339.314C338.498 99.7279 337.844 99.4819 337.352 98.9899C336.86 98.4979 336.614 97.8439 336.614 97.0279V96.2179C336.614 95.4019 336.86 94.7479 337.352 94.2559C337.844 93.7639 338.498 93.5179 339.314 93.5179H343.004V92.7979C343.004 92.6179 342.944 92.4679 342.824 92.3479C342.704 92.2279 342.554 92.1679 342.374 92.1679C341.594 92.1679 340.73 92.2039 339.782 92.2759C338.846 92.3479 338.09 92.4019 337.514 92.4379V90.1879ZM356.229 99.3679C353.985 99.6079 352.005 99.7279 350.289 99.7279C349.473 99.7279 348.819 99.4819 348.327 98.9899C347.835 98.4979 347.589 97.8439 347.589 97.0279V92.8879C347.589 91.9879 347.841 91.2859 348.345 90.7819C348.861 90.2659 349.569 90.0079 350.469 90.0079H356.229V92.4379H351.459C350.979 92.4379 350.739 92.6779 350.739 93.1579V96.6679C350.739 96.8479 350.799 96.9979 350.919 97.1179C351.039 97.2379 351.189 97.2979 351.369 97.2979C352.449 97.2979 354.069 97.2079 356.229 97.0279V99.3679ZM363.876 90.0079H367.206V99.5479H364.056V94.3279L360.996 99.5479H357.666V90.0079H360.816V95.2279L363.876 90.0079ZM375.214 90.0079H378.544V99.5479H375.394V94.3279L372.334 99.5479H369.004V90.0079H372.154V95.2279L375.214 90.0079ZM379.981 96.8479H383.221V99.3679L381.961 101.348H380.341L381.061 99.5479H379.981V96.8479ZM393.482 91.8079H397.802C399.062 91.8079 399.974 92.0959 400.538 92.6719C401.114 93.2359 401.402 94.1479 401.402 95.4079V95.9479C401.402 97.2079 401.114 98.1259 400.538 98.7019C399.974 99.2659 399.062 99.5479 397.802 99.5479H390.242V86.9479H400.232V89.4679H393.482V91.8079ZM398.162 95.4079C398.162 94.6879 397.802 94.3279 397.082 94.3279H393.482V97.0279H397.082C397.802 97.0279 398.162 96.6679 398.162 95.9479V95.4079ZM412.021 90.9079C412.021 91.9279 411.589 92.8099 410.725 93.5539C410.461 93.7819 410.173 94.0099 409.861 94.2379L405.991 97.0279H412.021V99.5479H402.301V96.1279L408.781 91.4479V90.5479C408.781 89.8279 408.421 89.4679 407.701 89.4679H402.661V86.9479H408.421C409.681 86.9479 410.593 87.2359 411.157 87.8119C411.733 88.3759 412.021 89.2879 412.021 90.5479V90.9079ZM420.659 90.3679C420.659 89.6479 420.299 89.2879 419.579 89.2879H417.599C416.879 89.2879 416.519 89.6479 416.519 90.3679V96.1279C416.519 96.8479 416.879 97.2079 417.599 97.2079H419.579C420.299 97.2079 420.659 96.8479 420.659 96.1279V90.3679ZM423.899 96.1279C423.899 97.3879 423.611 98.3059 423.035 98.8819C422.471 99.4459 421.559 99.7279 420.299 99.7279H416.879C415.619 99.7279 414.701 99.4459 414.125 98.8819C413.561 98.3059 413.279 97.3879 413.279 96.1279V90.3679C413.279 89.1079 413.561 88.1959 414.125 87.6319C414.701 87.0559 415.619 86.7679 416.879 86.7679H420.299C421.559 86.7679 422.471 87.0559 423.035 87.6319C423.611 88.1959 423.899 89.1079 423.899 90.3679V96.1279ZM427.497 86.9479H436.947V97.0279H438.297V101.888H435.237L435.057 99.5479H428.037L427.857 101.888H424.797V97.0279H425.967C426.315 96.6319 426.573 96.1879 426.741 95.6959C426.921 95.1919 427.023 94.7359 427.047 94.3279L427.497 86.9479ZM433.707 97.0279V89.4679H430.377L430.107 93.9679C430.071 94.6999 429.891 95.4379 429.567 96.1819C429.435 96.4939 429.285 96.7759 429.117 97.0279H433.707ZM439.022 96.9379C442.082 97.1179 444.242 97.2079 445.502 97.2079C445.778 97.2079 445.994 97.1299 446.15 96.9739C446.318 96.8059 446.402 96.5839 446.402 96.3079V95.5879C446.402 94.8679 446.042 94.5079 445.322 94.5079H441.002V91.9879H444.962C445.682 91.9879 446.042 91.6279 446.042 90.9079V90.5479C446.042 89.8279 445.682 89.4679 444.962 89.4679H439.202V86.9479H445.862C447.038 86.9479 447.902 87.2179 448.454 87.7579C449.006 88.2859 449.282 89.0959 449.282 90.1879C449.282 90.9079 449.114 91.4959 448.778 91.9519C448.454 92.3959 448.022 92.7079 447.482 92.8879C448.454 93.1519 449.114 93.7999 449.462 94.8319C449.582 95.2039 449.642 95.6359 449.642 96.1279V96.3079C449.642 97.4839 449.366 98.3479 448.814 98.8999C448.262 99.4519 447.398 99.7279 446.222 99.7279C444.218 99.7279 441.818 99.6079 439.022 99.3679V96.9379ZM458.276 90.3679C458.276 89.6479 457.916 89.2879 457.196 89.2879H455.216C454.496 89.2879 454.136 89.6479 454.136 90.3679V96.1279C454.136 96.8479 454.496 97.2079 455.216 97.2079H457.196C457.916 97.2079 458.276 96.8479 458.276 96.1279V90.3679ZM461.516 96.1279C461.516 97.3879 461.228 98.3059 460.652 98.8819C460.088 99.4459 459.176 99.7279 457.916 99.7279H454.496C453.236 99.7279 452.318 99.4459 451.742 98.8819C451.178 98.3059 450.896 97.3879 450.896 96.1279V90.3679C450.896 89.1079 451.178 88.1959 451.742 87.6319C452.318 87.0559 453.236 86.7679 454.496 86.7679H457.916C459.176 86.7679 460.088 87.0559 460.652 87.6319C461.228 88.1959 461.516 89.1079 461.516 90.3679V96.1279ZM462.063 86.9479H471.783V89.4679L467.643 99.5479H464.043L468.363 89.4679H462.063V86.9479Z" fill="white"/>
</svg>
