<svg width="247" height="11" viewBox="0 0 247 11" fill="none" xmlns="http://www.w3.org/2000/svg">
<path d="M2.0909 0.948632H8.3909V7.66863H9.2909V10.9086H7.2509L7.1309 9.34863H2.4509L2.3309 10.9086H0.290898V7.66863H1.0709C1.3029 7.40463 1.4749 7.10863 1.5869 6.78063C1.7069 6.44463 1.7749 6.14063 1.7909 5.86863L2.0909 0.948632ZM6.2309 7.66863V2.62863H4.0109L3.8309 5.62863C3.8069 6.11663 3.6869 6.60863 3.4709 7.10463C3.3829 7.31263 3.2829 7.50063 3.1709 7.66863H6.2309ZM14.2742 2.98863H16.4942V9.34863H14.3942V5.86863L12.3542 9.34863H10.1342V2.98863H12.2342V6.46863L14.2742 2.98863ZM17.3328 7.78863C18.8608 7.90863 20.0608 7.96863 20.9328 7.96863C21.0528 7.96863 21.1528 7.92863 21.2328 7.84863C21.3128 7.76863 21.3528 7.66863 21.3528 7.54863V7.36863C21.3528 7.24863 21.3128 7.14863 21.2328 7.06863C21.1528 6.98863 21.0528 6.94863 20.9328 6.94863H18.2928V5.44863H20.6928C20.8128 5.44863 20.9128 5.40863 20.9928 5.32863C21.0728 5.24863 21.1128 5.14863 21.1128 5.02863V4.90863C21.1128 4.78863 21.0728 4.68863 20.9928 4.60863C20.9128 4.52863 20.8128 4.48863 20.6928 4.48863H17.4528V2.98863H21.4128C21.9488 2.98863 22.3808 3.14863 22.7088 3.46863C23.0448 3.78063 23.2128 4.13263 23.2128 4.52463C23.2128 5.32463 22.8528 5.81263 22.1328 5.98863C22.4928 6.05263 22.8008 6.22863 23.0568 6.51663C23.3208 6.80463 23.4528 7.20463 23.4528 7.71663C23.4528 8.22863 23.2888 8.64863 22.9608 8.97663C22.6328 9.30463 22.1968 9.46863 21.6528 9.46863C20.3168 9.46863 18.8768 9.38863 17.3328 9.22863V7.78863ZM26.8104 7.78863C27.2344 7.78863 27.7144 7.70863 28.2504 7.54863V6.82863H26.5104C26.3904 6.82863 26.2904 6.86863 26.2104 6.94863C26.1304 7.02863 26.0904 7.12863 26.0904 7.24863V7.36863C26.0904 7.48863 26.1304 7.58863 26.2104 7.66863C26.2904 7.74863 26.3904 7.78863 26.5104 7.78863H26.8104ZM24.5904 3.10863C26.0544 2.94863 27.3744 2.86863 28.5504 2.86863C29.0944 2.86863 29.5304 3.03263 29.8584 3.36063C30.1864 3.68863 30.3504 4.12463 30.3504 4.66863V9.34863H28.4904L28.3704 8.74863C27.9944 8.99663 27.6064 9.18063 27.2064 9.30063C26.8144 9.41263 26.4824 9.46863 26.2104 9.46863H25.7904C25.2464 9.46863 24.8104 9.30463 24.4824 8.97663C24.1544 8.64863 23.9904 8.21263 23.9904 7.66863V7.12863C23.9904 6.58463 24.1544 6.14863 24.4824 5.82063C24.8104 5.49263 25.2464 5.32863 25.7904 5.32863H28.2504V4.84863C28.2504 4.72863 28.2104 4.62863 28.1304 4.54863C28.0504 4.46863 27.9504 4.42863 27.8304 4.42863C27.3104 4.42863 26.7344 4.45263 26.1024 4.50063C25.4784 4.54863 24.9744 4.58463 24.5904 4.60863V3.10863ZM33.9471 2.38863C32.9071 2.38863 32.3871 1.86863 32.3871 0.828632V0.468633H33.9471V0.768632C33.9471 0.888632 33.9871 0.988632 34.0671 1.06863C34.1471 1.14863 34.2471 1.18863 34.3671 1.18863H34.7271C34.8471 1.18863 34.9471 1.14863 35.0271 1.06863C35.1071 0.988632 35.1471 0.888632 35.1471 0.768632V0.468633H36.7071V0.828632C36.7071 1.86863 36.1871 2.38863 35.1471 2.38863H33.9471ZM35.5671 2.98863H37.7871V9.34863H35.6871V5.86863L33.6471 9.34863H31.4271V2.98863H33.5271V6.46863L35.5671 2.98863ZM43.2457 5.32863V2.98863H45.3457V9.34863H43.2457V6.94863H41.0857V9.34863H38.9857V2.98863H41.0857V5.32863H43.2457ZM56.742 9.22863C54.958 9.38863 53.478 9.46863 52.302 9.46863C51.518 9.46863 50.942 9.28463 50.574 8.91663C50.206 8.54863 50.022 7.97263 50.022 7.18863V3.34863C50.022 2.50863 50.21 1.90063 50.586 1.52463C50.97 1.14063 51.582 0.948632 52.422 0.948632H56.742V2.62863H52.902C52.422 2.62863 52.182 2.86863 52.182 3.34863V7.18863C52.182 7.37263 52.234 7.52063 52.338 7.63263C52.45 7.73663 52.59 7.78863 52.758 7.78863C52.926 7.78863 53.11 7.78863 53.31 7.78863C53.51 7.78063 53.718 7.77263 53.934 7.76463C54.15 7.75663 54.366 7.74863 54.582 7.74063C54.806 7.73263 55.09 7.71663 55.434 7.69263C55.786 7.66863 56.222 7.64063 56.742 7.60863V9.22863ZM64.0634 7.54863C64.0634 8.14863 63.8914 8.62063 63.5474 8.96463C63.2114 9.30063 62.7434 9.46863 62.1434 9.46863H59.3834C58.7834 9.46863 58.3114 9.30063 57.9674 8.96463C57.6314 8.62063 57.4634 8.14863 57.4634 7.54863V4.78863C57.4634 4.18863 57.6314 3.72063 57.9674 3.38463C58.3114 3.04063 58.7834 2.86863 59.3834 2.86863H62.1434C62.7434 2.86863 63.2114 3.04063 63.5474 3.38463C63.8914 3.72063 64.0634 4.18863 64.0634 4.78863V7.54863ZM61.9634 4.96863C61.9634 4.64863 61.8034 4.48863 61.4834 4.48863H60.0434C59.7234 4.48863 59.5634 4.64863 59.5634 4.96863V7.36863C59.5634 7.68863 59.7234 7.84863 60.0434 7.84863H61.4834C61.8034 7.84863 61.9634 7.68863 61.9634 7.36863V4.96863ZM68.142 6.94863H67.242V9.34863H65.142V2.98863H67.242V5.32863H68.202L68.862 4.00863C69.102 3.49663 69.478 3.14863 69.99 2.96463C70.174 2.90063 70.35 2.86863 70.518 2.86863C70.79 2.86863 71.038 2.88863 71.262 2.92863L71.562 2.98863V4.60863H71.142C70.87 4.60863 70.67 4.72863 70.542 4.96863L69.942 6.16863L71.742 9.34863H69.462L68.142 6.94863ZM78.8173 7.54863C78.8173 8.14863 78.6453 8.62063 78.3013 8.96463C77.9653 9.30063 77.4973 9.46863 76.8973 9.46863H74.1373C73.5373 9.46863 73.0653 9.30063 72.7213 8.96463C72.3853 8.62063 72.2173 8.14863 72.2173 7.54863V4.78863C72.2173 4.18863 72.3853 3.72063 72.7213 3.38463C73.0653 3.04063 73.5373 2.86863 74.1373 2.86863H76.8973C77.4973 2.86863 77.9653 3.04063 78.3013 3.38463C78.6453 3.72063 78.8173 4.18863 78.8173 4.78863V7.54863ZM76.7173 4.96863C76.7173 4.64863 76.5573 4.48863 76.2373 4.48863H74.7973C74.4773 4.48863 74.3173 4.64863 74.3173 4.96863V7.36863C74.3173 7.68863 74.4773 7.84863 74.7973 7.84863H76.2373C76.5573 7.84863 76.7173 7.68863 76.7173 7.36863V4.96863ZM80.6159 9.46863C80.2719 9.46863 79.8719 9.42863 79.4159 9.34863V7.78863H79.8959C80.1999 7.78863 80.3599 7.62863 80.3759 7.30863L80.6159 2.98863H86.3759V9.34863H84.2759V4.60863H82.5959L82.4159 7.66863C82.3839 8.21263 82.2039 8.64863 81.8759 8.97663C81.5479 9.30463 81.1279 9.46863 80.6159 9.46863ZM94.0517 7.54863C94.0517 8.14863 93.8797 8.62063 93.5357 8.96463C93.1997 9.30063 92.7317 9.46863 92.1317 9.46863H89.3717C88.7717 9.46863 88.2997 9.30063 87.9557 8.96463C87.6197 8.62063 87.4517 8.14863 87.4517 7.54863V4.78863C87.4517 4.18863 87.6197 3.72063 87.9557 3.38463C88.2997 3.04063 88.7717 2.86863 89.3717 2.86863H92.1317C92.7317 2.86863 93.1997 3.04063 93.5357 3.38463C93.8797 3.72063 94.0517 4.18863 94.0517 4.78863V7.54863ZM91.9517 4.96863C91.9517 4.64863 91.7917 4.48863 91.4717 4.48863H90.0317C89.7117 4.48863 89.5517 4.64863 89.5517 4.96863V7.36863C89.5517 7.68863 89.7117 7.84863 90.0317 7.84863H91.4717C91.7917 7.84863 91.9517 7.68863 91.9517 7.36863V4.96863ZM99.6903 9.34863H95.1303V2.98863H99.3303C99.8663 2.98863 100.298 3.14863 100.626 3.46863C100.962 3.78063 101.13 4.13263 101.13 4.52463C101.13 4.91663 101.046 5.23663 100.878 5.48463C100.71 5.73263 100.474 5.90063 100.17 5.98863C100.53 6.05263 100.838 6.22863 101.094 6.51663C101.358 6.80463 101.49 7.18863 101.49 7.66863C101.49 8.14863 101.322 8.54863 100.986 8.86863C100.658 9.18863 100.226 9.34863 99.6903 9.34863ZM99.3903 7.30863C99.3903 7.18863 99.3503 7.08863 99.2703 7.00863C99.1903 6.92863 99.0903 6.88863 98.9703 6.88863H97.2303V7.90863H98.9703C99.0903 7.90863 99.1903 7.86863 99.2703 7.78863C99.3503 7.70863 99.3903 7.60863 99.3903 7.48863V7.30863ZM99.0303 4.84863C99.0303 4.72863 98.9903 4.62863 98.9103 4.54863C98.8303 4.46863 98.7303 4.42863 98.6103 4.42863H97.2303V5.50863H98.6103C98.7303 5.50863 98.8303 5.46863 98.9103 5.38863C98.9903 5.30863 99.0303 5.20863 99.0303 5.08863V4.84863ZM108.806 7.54863C108.806 8.14863 108.634 8.62063 108.29 8.96463C107.954 9.30063 107.486 9.46863 106.886 9.46863H104.126C103.526 9.46863 103.054 9.30063 102.71 8.96463C102.374 8.62063 102.206 8.14863 102.206 7.54863V4.78863C102.206 4.18863 102.374 3.72063 102.71 3.38463C103.054 3.04063 103.526 2.86863 104.126 2.86863H106.886C107.486 2.86863 107.954 3.04063 108.29 3.38463C108.634 3.72063 108.806 4.18863 108.806 4.78863V7.54863ZM106.706 4.96863C106.706 4.64863 106.546 4.48863 106.226 4.48863H104.786C104.466 4.48863 104.306 4.64863 104.306 4.96863V7.36863C104.306 7.68863 104.466 7.84863 104.786 7.84863H106.226C106.546 7.84863 106.706 7.68863 106.706 7.36863V4.96863ZM112.404 2.38863C111.364 2.38863 110.844 1.86863 110.844 0.828632V0.468633H112.404V0.768632C112.404 0.888632 112.444 0.988632 112.524 1.06863C112.604 1.14863 112.704 1.18863 112.824 1.18863H113.184C113.304 1.18863 113.404 1.14863 113.484 1.06863C113.564 0.988632 113.604 0.888632 113.604 0.768632V0.468633H115.164V0.828632C115.164 1.86863 114.644 2.38863 113.604 2.38863H112.404ZM114.024 2.98863H116.244V9.34863H114.144V5.86863L112.104 9.34863H109.884V2.98863H111.984V6.46863L114.024 2.98863ZM122.66 9.34863H120.32L123.5 0.948632H125.9L129.08 9.34863H126.74L126.2 7.84863H123.2L122.66 9.34863ZM123.74 6.28863H125.66L124.7 3.46863L123.74 6.28863ZM133.82 5.32863V2.98863H135.92V9.34863H133.82V6.94863H131.66V9.34863H129.56V2.98863H131.66V5.32863H133.82ZM139.639 7.78863C140.063 7.78863 140.543 7.70863 141.079 7.54863V6.82863H139.339C139.219 6.82863 139.119 6.86863 139.039 6.94863C138.959 7.02863 138.919 7.12863 138.919 7.24863V7.36863C138.919 7.48863 138.959 7.58863 139.039 7.66863C139.119 7.74863 139.219 7.78863 139.339 7.78863H139.639ZM137.419 3.10863C138.883 2.94863 140.203 2.86863 141.379 2.86863C141.923 2.86863 142.359 3.03263 142.687 3.36063C143.015 3.68863 143.179 4.12463 143.179 4.66863V9.34863H141.319L141.199 8.74863C140.823 8.99663 140.435 9.18063 140.035 9.30063C139.643 9.41263 139.311 9.46863 139.039 9.46863H138.619C138.075 9.46863 137.639 9.30463 137.311 8.97663C136.983 8.64863 136.819 8.21263 136.819 7.66863V7.12863C136.819 6.58463 136.983 6.14863 137.311 5.82063C137.639 5.49263 138.075 5.32863 138.619 5.32863H141.079V4.84863C141.079 4.72863 141.039 4.62863 140.959 4.54863C140.879 4.46863 140.779 4.42863 140.659 4.42863C140.139 4.42863 139.563 4.45263 138.931 4.50063C138.307 4.54863 137.803 4.58463 137.419 4.60863V3.10863ZM149.895 9.22863C148.399 9.38863 147.079 9.46863 145.935 9.46863C145.391 9.46863 144.955 9.30463 144.627 8.97663C144.299 8.64863 144.135 8.21263 144.135 7.66863V4.90863C144.135 4.30863 144.303 3.84063 144.639 3.50463C144.983 3.16063 145.455 2.98863 146.055 2.98863H149.895V4.60863H146.715C146.395 4.60863 146.235 4.76863 146.235 5.08863V7.42863C146.235 7.54863 146.275 7.64863 146.355 7.72863C146.435 7.80863 146.535 7.84863 146.655 7.84863C147.375 7.84863 148.455 7.78863 149.895 7.66863V9.22863ZM154.453 4.60863V9.34863H152.353V4.60863H150.373V2.98863H156.433V4.60863H154.453ZM159.443 7.78863C159.867 7.78863 160.347 7.70863 160.883 7.54863V6.82863H159.143C159.023 6.82863 158.923 6.86863 158.843 6.94863C158.763 7.02863 158.723 7.12863 158.723 7.24863V7.36863C158.723 7.48863 158.763 7.58863 158.843 7.66863C158.923 7.74863 159.023 7.78863 159.143 7.78863H159.443ZM157.223 3.10863C158.687 2.94863 160.007 2.86863 161.183 2.86863C161.727 2.86863 162.163 3.03263 162.491 3.36063C162.819 3.68863 162.983 4.12463 162.983 4.66863V9.34863H161.123L161.003 8.74863C160.627 8.99663 160.239 9.18063 159.839 9.30063C159.447 9.41263 159.115 9.46863 158.843 9.46863H158.423C157.879 9.46863 157.443 9.30463 157.115 8.97663C156.787 8.64863 156.623 8.21263 156.623 7.66863V7.12863C156.623 6.58463 156.787 6.14863 157.115 5.82063C157.443 5.49263 157.879 5.32863 158.423 5.32863H160.883V4.84863C160.883 4.72863 160.843 4.62863 160.763 4.54863C160.683 4.46863 160.583 4.42863 160.463 4.42863C159.943 4.42863 159.367 4.45263 158.735 4.50063C158.111 4.54863 157.607 4.58463 157.223 4.60863V3.10863ZM169.7 9.22863C168.204 9.38863 166.884 9.46863 165.74 9.46863C165.196 9.46863 164.76 9.30463 164.432 8.97663C164.104 8.64863 163.94 8.21263 163.94 7.66863V4.90863C163.94 4.30863 164.108 3.84063 164.444 3.50463C164.788 3.16063 165.26 2.98863 165.86 2.98863H169.7V4.60863H166.52C166.2 4.60863 166.04 4.76863 166.04 5.08863V7.42863C166.04 7.54863 166.08 7.64863 166.16 7.72863C166.24 7.80863 166.34 7.84863 166.46 7.84863C167.18 7.84863 168.26 7.78863 169.7 7.66863V9.22863ZM174.798 2.98863H177.018V9.34863H174.918V5.86863L172.878 9.34863H170.658V2.98863H172.758V6.46863L174.798 2.98863ZM182.356 2.98863H184.576V9.34863H182.476V5.86863L180.436 9.34863H178.216V2.98863H180.316V6.46863L182.356 2.98863ZM185.535 7.54863H187.695V9.22863L186.855 10.5486H185.775L186.255 9.34863H185.535V7.54863ZM194.535 4.18863H197.415C198.255 4.18863 198.863 4.38063 199.239 4.76463C199.623 5.14063 199.815 5.74863 199.815 6.58863V6.94863C199.815 7.78863 199.623 8.40063 199.239 8.78463C198.863 9.16063 198.255 9.34863 197.415 9.34863H192.375V0.948632H199.035V2.62863H194.535V4.18863ZM197.655 6.58863C197.655 6.10863 197.415 5.86863 196.935 5.86863H194.535V7.66863H196.935C197.415 7.66863 197.655 7.42863 197.655 6.94863V6.58863ZM206.895 3.58863C206.895 4.26863 206.607 4.85663 206.031 5.35263C205.855 5.50463 205.663 5.65663 205.455 5.80863L202.875 7.66863H206.895V9.34863H200.415V7.06863L204.735 3.94863V3.34863C204.735 2.86863 204.495 2.62863 204.015 2.62863H200.655V0.948632H204.495C205.335 0.948632 205.943 1.14063 206.319 1.52463C206.703 1.90063 206.895 2.50863 206.895 3.34863V3.58863ZM212.653 3.22863C212.653 2.74863 212.413 2.50863 211.933 2.50863H210.613C210.133 2.50863 209.893 2.74863 209.893 3.22863V7.06863C209.893 7.54863 210.133 7.78863 210.613 7.78863H211.933C212.413 7.78863 212.653 7.54863 212.653 7.06863V3.22863ZM214.813 7.06863C214.813 7.90863 214.621 8.52063 214.237 8.90463C213.861 9.28063 213.253 9.46863 212.413 9.46863H210.133C209.293 9.46863 208.681 9.28063 208.297 8.90463C207.921 8.52063 207.733 7.90863 207.733 7.06863V3.22863C207.733 2.38863 207.921 1.78063 208.297 1.40463C208.681 1.02063 209.293 0.828632 210.133 0.828632H212.413C213.253 0.828632 213.861 1.02063 214.237 1.40463C214.621 1.78063 214.813 2.38863 214.813 3.22863V7.06863ZM217.212 0.948632H223.512V7.66863H224.412V10.9086H222.372L222.252 9.34863H217.572L217.452 10.9086H215.412V7.66863H216.192C216.424 7.40463 216.596 7.10863 216.708 6.78063C216.828 6.44463 216.896 6.14063 216.912 5.86863L217.212 0.948632ZM221.352 7.66863V2.62863H219.132L218.952 5.62863C218.928 6.11663 218.808 6.60863 218.592 7.10463C218.504 7.31263 218.404 7.50063 218.292 7.66863H221.352ZM224.895 7.60863C226.935 7.72863 228.375 7.78863 229.215 7.78863C229.399 7.78863 229.543 7.73663 229.647 7.63263C229.759 7.52063 229.815 7.37263 229.815 7.18863V6.70863C229.815 6.22863 229.575 5.98863 229.095 5.98863H226.215V4.30863H228.855C229.335 4.30863 229.575 4.06863 229.575 3.58863V3.34863C229.575 2.86863 229.335 2.62863 228.855 2.62863H225.015V0.948632H229.455C230.239 0.948632 230.815 1.12863 231.183 1.48863C231.551 1.84063 231.735 2.38063 231.735 3.10863C231.735 3.58863 231.623 3.98063 231.399 4.28463C231.183 4.58063 230.895 4.78863 230.535 4.90863C231.183 5.08463 231.623 5.51663 231.855 6.20463C231.935 6.45263 231.975 6.74063 231.975 7.06863V7.18863C231.975 7.97263 231.791 8.54863 231.423 8.91663C231.055 9.28463 230.479 9.46863 229.695 9.46863C228.359 9.46863 226.759 9.38863 224.895 9.22863V7.60863ZM237.731 3.22863C237.731 2.74863 237.491 2.50863 237.011 2.50863H235.691C235.211 2.50863 234.971 2.74863 234.971 3.22863V7.06863C234.971 7.54863 235.211 7.78863 235.691 7.78863H237.011C237.491 7.78863 237.731 7.54863 237.731 7.06863V3.22863ZM239.891 7.06863C239.891 7.90863 239.699 8.52063 239.315 8.90463C238.939 9.28063 238.331 9.46863 237.491 9.46863H235.211C234.371 9.46863 233.759 9.28063 233.375 8.90463C232.999 8.52063 232.811 7.90863 232.811 7.06863V3.22863C232.811 2.38863 232.999 1.78063 233.375 1.40463C233.759 1.02063 234.371 0.828632 235.211 0.828632H237.491C238.331 0.828632 238.939 1.02063 239.315 1.40463C239.699 1.78063 239.891 2.38863 239.891 3.22863V7.06863ZM240.256 0.948632H246.736V2.62863L243.976 9.34863H241.576L244.456 2.62863H240.256V0.948632Z" fill="white"/>
</svg>
