<svg width="42" height="99" viewBox="0 0 42 99" fill="none" xmlns="http://www.w3.org/2000/svg">
<path d="M41.7969 83.1851C41.7969 91.6719 34.917 98.5518 26.4302 98.5518L15.5633 98.5518C7.07652 98.5518 0.196648 91.6719 0.196649 83.1851L0.196655 15.7065C0.196656 7.21973 7.07654 0.339856 15.5633 0.339857L26.4302 0.339858C34.917 0.339858 41.7969 7.21974 41.7969 15.7065L41.7969 83.1851Z" fill="#141415"/>
<path d="M24.8564 77.4323C24.8564 79.564 23.1284 81.292 20.9968 81.292C18.8651 81.292 17.1371 79.5639 17.1371 77.4323L17.1371 21.4598C17.1371 19.3282 18.8651 17.6001 20.9968 17.6001C23.1284 17.6001 24.8565 19.3282 24.8565 21.4598L24.8564 77.4323Z" fill="white"/>
</svg>
