<svg width="1696" height="844" viewBox="0 0 1696 844" fill="none" xmlns="http://www.w3.org/2000/svg">
<path fill-rule="evenodd" clip-rule="evenodd" d="M7.0918 0.950195H0.0917969V843.454H7.0918H1685.46H1695.51V0.950195H1685.46H7.0918ZM974.429 274.877C974.429 274.226 974.677 273.599 975.123 273.125L998.068 248.707C998.552 248.192 999.227 247.9 999.933 247.9H1051.32C1052.74 247.9 1053.88 249.046 1053.88 250.459V300.062C1053.88 300.074 1053.89 300.083 1053.9 300.083C1053.91 300.083 1053.92 300.087 1053.92 300.094C1053.92 300.097 1053.92 300.1 1053.92 300.104C1053.92 300.109 1053.92 300.115 1053.92 300.119L1028.73 323.786C1028.26 324.232 1027.63 324.48 1026.98 324.48H1001.38C999.972 324.48 998.826 325.626 998.826 327.039V353.768C998.826 356.086 995.99 357.209 994.403 355.52L975.123 335.003C974.677 334.528 974.429 333.902 974.429 333.251V274.877ZM1029.48 274.856C1029.48 273.443 1028.34 272.298 1026.93 272.298H1001.38C999.972 272.298 998.826 273.443 998.826 274.856V297.524C998.826 298.937 999.972 300.083 1001.38 300.083H1026.93C1028.34 300.083 1029.48 298.937 1029.48 297.524V274.856ZM687.086 248.095C686.908 248.078 686.756 248.069 686.724 248.069L659.867 248.11C658.821 248.135 658.712 248.246 658.181 248.786L658.174 248.792L658.108 248.859C658.077 248.891 658.044 248.924 658.01 248.958L635.192 273.293C634.746 273.768 634.498 274.394 634.498 275.045V333.299C634.498 334.021 634.802 334.709 635.337 335.194L658.118 355.858C658.589 356.285 659.201 356.522 659.837 356.522H687.58L688.967 356.407C689.567 356.357 690.13 356.098 690.558 355.674L711.22 335.183C711.704 334.703 711.977 334.049 711.977 333.366V275.045C711.977 274.394 711.729 273.768 711.283 273.293L688.275 248.782C687.954 248.441 687.552 248.139 687.086 248.095ZM687.578 274.926C687.579 273.512 686.433 272.365 685.019 272.365H661.452C660.039 272.365 658.894 273.51 658.893 274.922L658.851 329.664C658.85 331.078 659.996 332.225 661.41 332.225H684.977C686.39 332.225 687.535 331.081 687.536 329.668L687.578 274.926ZM683.904 412.313C683.904 406.806 681.158 404.053 675.665 404.053H660.561C655.068 404.053 652.322 406.806 652.322 412.313V456.362C652.322 461.869 655.068 464.622 660.561 464.622H675.665C681.158 464.622 683.904 461.869 683.904 456.362V412.313ZM708.62 456.362C708.62 465.998 706.423 473.019 702.029 477.424C697.727 481.737 690.769 483.893 681.158 483.893H655.068C645.456 483.893 638.454 481.737 634.06 477.424C629.757 473.019 627.606 465.998 627.606 456.362V412.313C627.606 402.677 629.757 395.702 634.06 391.389C638.454 386.984 645.456 384.782 655.068 384.782H681.158C690.769 384.782 697.727 386.984 702.029 391.389C706.423 395.702 708.62 402.677 708.62 412.313V456.362ZM618.016 416.442C618.016 424.243 614.72 430.988 608.129 436.678C606.115 438.421 603.918 440.165 601.538 441.909L572.016 463.245H618.016V482.517H543.867V456.362L593.299 420.572V413.689C593.299 408.183 590.553 405.43 585.061 405.43H546.613V386.158H590.553C600.165 386.158 607.122 388.361 611.425 392.766C615.819 397.079 618.016 404.053 618.016 413.689V416.442ZM716.848 481.14C735.431 482.976 752.366 483.893 767.653 483.893C776.624 483.893 783.215 481.783 787.426 477.561C791.637 473.34 793.743 466.732 793.743 457.739V456.362C793.743 452.6 793.285 449.296 792.37 446.451C789.715 438.559 784.68 433.603 777.265 431.584C781.385 430.208 784.68 427.822 787.152 424.426C789.715 420.939 790.996 416.442 790.996 410.936C790.996 402.585 788.891 396.391 784.68 392.353C780.469 388.223 773.878 386.158 764.907 386.158H718.221V405.43H758.042C763.534 405.43 766.28 408.183 766.28 413.689V416.442C766.28 421.949 763.534 424.702 758.042 424.702H731.952V443.973H760.788C766.28 443.973 769.026 446.726 769.026 452.233V457.739C769.026 459.85 768.386 461.547 767.104 462.832C765.914 464.025 764.266 464.622 762.161 464.622C752.183 464.622 737.079 463.933 716.848 462.557V481.14ZM807.522 462.557C826.38 463.933 839.653 464.622 847.343 464.622C849.448 464.622 851.096 464.025 852.286 462.832C853.567 461.547 854.208 459.85 854.208 457.739V445.35C845.329 447.185 837.548 448.103 830.865 448.103H821.253C815.029 448.103 810.039 446.222 806.286 442.459C802.533 438.697 800.656 433.695 800.656 427.455V409.56C800.656 401.208 802.762 395.014 806.973 390.976C811.184 386.846 817.775 384.782 826.746 384.782H852.835C861.806 384.782 868.397 386.846 872.608 390.976C876.819 395.014 878.924 401.208 878.924 409.56V457.739C878.924 466.732 876.819 473.34 872.608 477.561C868.397 481.783 861.806 483.893 852.835 483.893C840.294 483.893 825.19 482.976 807.522 481.14V462.557ZM837.731 428.831C842.949 428.831 848.441 428.372 854.208 427.455V412.313C854.208 406.806 851.462 404.053 845.97 404.053H833.611C828.119 404.053 825.373 406.806 825.373 412.313V424.013C825.373 425.39 825.83 426.537 826.746 427.455C827.661 428.372 828.805 428.831 830.179 428.831H837.731ZM608.329 563.508C614.94 557.86 618.246 551.166 618.246 543.423V540.691C618.246 531.127 616.042 524.204 611.634 519.923C607.318 515.551 600.34 513.365 590.698 513.365H546.622V532.493H585.189C590.698 532.493 593.453 535.226 593.453 540.691V547.522L543.867 583.045V609.005H618.246V589.877H572.103L601.717 568.699C604.105 566.969 606.308 565.238 608.329 563.508ZM684.338 539.324C684.338 533.859 681.584 531.127 676.074 531.127H660.923C655.413 531.127 652.659 533.859 652.659 539.324V583.045C652.659 588.51 655.413 591.243 660.923 591.243H676.074C681.584 591.243 684.338 588.51 684.338 583.045V539.324ZM709.131 583.045C709.131 592.609 706.927 599.577 702.52 603.949C698.204 608.23 691.225 610.371 681.584 610.371H655.413C645.772 610.371 638.747 608.23 634.34 603.949C630.024 599.577 627.866 592.609 627.866 583.045V539.324C627.866 529.76 630.024 522.838 634.34 518.557C638.747 514.185 645.772 511.999 655.413 511.999H681.584C691.225 511.999 698.204 514.185 702.52 518.557C706.927 522.838 709.131 529.76 709.131 539.324V583.045ZM717.385 589.877H768.348V609.005H793.141V589.877H802.782V570.749H793.141V550.255H768.348V570.749H744.932L777.99 513.365H750.442L717.385 570.749V589.877ZM857.932 610.371C842.597 610.371 825.609 609.46 806.968 607.638V589.194C827.262 590.56 842.413 591.243 852.422 591.243C854.534 591.243 856.187 590.651 857.381 589.467C858.666 588.192 859.309 586.507 859.309 584.412V578.947C859.309 573.481 856.554 570.749 851.045 570.749H822.12V551.621H848.29C853.799 551.621 856.554 548.888 856.554 543.423V540.691C856.554 535.226 853.799 532.493 848.29 532.493H808.346V513.365H855.177C864.176 513.365 870.787 515.414 875.011 519.513C879.235 523.521 881.347 529.669 881.347 537.958C881.347 543.423 880.061 547.886 877.49 551.348C875.011 554.718 871.705 557.086 867.573 558.452C875.011 560.456 880.061 565.375 882.724 573.208C883.643 576.032 884.102 579.311 884.102 583.045V584.412C884.102 593.338 881.99 599.896 877.766 604.086C873.542 608.276 866.93 610.371 857.932 610.371ZM719.787 333.291C719.787 334.018 720.096 334.71 720.636 335.195L743.455 355.675C743.924 356.097 744.533 356.33 745.164 356.33H772.269C772.915 356.33 773.537 356.086 774.01 355.646L794.46 336.659C796.165 335.076 795.045 332.225 792.719 332.225H746.741C745.328 332.225 744.182 331.079 744.182 329.666L744.184 275.025C744.184 273.612 745.329 272.466 746.743 272.466H792.778C795.096 272.466 796.219 269.63 794.53 268.043L774.013 248.763C773.538 248.317 772.912 248.069 772.261 248.069H745.291C744.584 248.069 743.91 248.361 743.426 248.875L720.481 273.293C720.035 273.768 719.787 274.394 719.787 275.045V333.291ZM962.196 355.699C963.783 357.388 966.619 356.265 966.619 353.947L966.608 249.658L966.608 249.556C966.614 248.74 965.957 248.074 965.142 248.069L915.096 248.079C914.386 248.079 913.708 248.375 913.224 248.894L891.103 272.658C890.662 273.132 890.417 273.754 890.417 274.401V333.419C890.417 334.07 890.665 334.697 891.111 335.171L910.342 355.637C911.936 357.333 914.783 356.193 914.766 353.866L914.577 328.318C914.566 326.897 915.715 325.74 917.135 325.74L939.663 325.74C941.076 325.74 942.222 326.886 942.222 328.299V333.43C942.222 334.081 942.47 334.707 942.916 335.182L962.196 355.699ZM914.358 298.803C914.369 300.209 915.511 301.343 916.917 301.343H939.663C941.076 301.343 942.222 300.197 942.222 298.784V275.025C942.222 273.612 941.076 272.466 939.663 272.466H916.741C915.321 272.466 914.172 273.623 914.182 275.044L914.358 298.803ZM829.745 332.237C829.745 332.933 829.469 333.602 828.978 334.096L807.66 355.546C806.002 357.216 803.153 356.041 803.153 353.688V250.711C803.153 248.358 806.002 247.183 807.66 248.852L829.745 271.074L842.268 283.114C843.289 284.095 844.902 284.095 845.923 283.114L858.448 271.076L880.532 248.853C882.191 247.183 885.039 248.358 885.039 250.711V353.688C885.039 356.041 882.191 357.216 880.532 355.546L859.214 334.096C858.723 333.602 858.448 332.933 858.448 332.237V304.193C858.448 302.736 857.267 301.556 855.811 301.556H832.382C830.925 301.556 829.745 302.736 829.745 304.193V332.237ZM626.646 300.232C626.646 300.238 626.648 300.244 626.652 300.247C626.656 300.251 626.661 300.253 626.666 300.253C626.685 300.253 626.694 300.276 626.681 300.289L601.494 323.956C601.02 324.402 600.393 324.65 599.742 324.65H574.149C572.736 324.65 571.591 325.796 571.591 327.209V353.938C571.591 356.256 568.755 357.379 567.167 355.69L547.887 335.173C547.442 334.698 547.193 334.072 547.193 333.421V275.047C547.193 274.396 547.442 273.769 547.887 273.295L570.858 248.754L570.862 248.749L570.867 248.744C570.869 248.74 570.871 248.739 570.879 248.731C571.194 248.453 571.965 248.095 572.385 248.085C572.746 248.076 573.086 248.071 573.1 248.071L624.087 248.07C625.5 248.07 626.646 249.216 626.646 250.629V300.232ZM574.149 272.468C572.736 272.468 571.591 273.613 571.591 275.027V297.694C571.591 299.107 572.736 300.253 574.149 300.253H599.69C601.103 300.253 602.248 299.107 602.248 297.694V275.027C602.248 273.613 601.103 272.468 599.69 272.468H574.149ZM1062.58 335.195C1062.04 334.71 1061.73 334.018 1061.73 333.291V275.045C1061.73 274.394 1061.98 273.768 1062.43 273.293L1085.37 248.875C1085.86 248.361 1086.53 248.069 1087.24 248.069H1114.21C1114.86 248.069 1115.49 248.317 1115.96 248.763L1136.48 268.043C1138.17 269.63 1137.04 272.466 1134.73 272.466H1088.69C1087.28 272.466 1086.13 273.612 1086.13 275.025L1086.13 329.666C1086.13 331.079 1087.28 332.225 1088.69 332.225H1134.67C1136.99 332.225 1138.11 335.076 1136.41 336.659L1115.96 355.646C1115.49 356.086 1114.86 356.33 1114.22 356.33H1087.11C1086.48 356.33 1085.87 356.097 1085.4 355.675L1062.58 335.195ZM1133.59 388.48H894.116V407.804H1133.59V388.48ZM890.418 384.782V411.502H1137.29V384.782H890.418ZM917.202 391.917H898.474V404.366H917.202V391.917ZM921.817 391.917H940.545V404.366H921.817V391.917ZM963.885 391.917H945.157V404.366H963.885V391.917ZM968.5 391.917H987.228V404.366H968.5V391.917ZM894.114 428.994H1133.59V448.318H894.114V428.994ZM890.416 452.016V425.296H1137.29V452.016H890.416ZM898.474 432.431H917.201V444.881H898.474V432.431ZM940.544 432.431H921.817V444.881H940.544V432.431ZM945.157 432.431H963.885V444.881H945.157V432.431ZM987.228 432.431H968.5V444.881H987.228V432.431ZM991.841 432.431H1010.57V444.881H991.841V432.431ZM1033.91 432.431H1015.18V444.881H1033.91V432.431ZM1038.52 432.431H1057.25V444.881H1038.52V432.431ZM894.114 469.509H1133.59V488.833H894.114V469.509ZM890.416 492.531V465.811H1137.29V492.531H890.416ZM898.474 472.945H917.201V485.395H898.474V472.945ZM940.544 472.945H921.817V485.395H940.544V472.945ZM945.157 472.945H963.885V485.395H945.157V472.945ZM987.228 472.945H968.5V485.395H987.228V472.945ZM991.841 472.945H1010.57V485.395H991.841V472.945ZM1033.91 472.945H1015.18V485.395H1033.91V472.945ZM1038.52 472.945H1057.25V485.395H1038.52V472.945ZM1080.59 472.945H1061.87V485.395H1080.59V472.945ZM1085.21 472.945H1103.94V485.395H1085.21V472.945ZM1127.28 472.945H1108.55V485.395H1127.28V472.945ZM1133.59 510.023H894.114V529.347H1133.59V510.023ZM890.416 506.325V533.045H1137.29V506.325H890.416ZM917.201 513.46H898.474V525.909H917.201V513.46ZM921.817 513.46H940.544V525.909H921.817V513.46ZM963.885 513.46H945.157V525.909H963.885V513.46ZM968.5 513.46H987.228V525.909H968.5V513.46ZM1010.57 513.46H991.841V525.909H1010.57V513.46ZM1133.59 550.537H894.114V569.861H1133.59V550.537ZM890.416 546.839V573.559H1137.29V546.839H890.416ZM917.201 553.974H898.474V566.424H917.201V553.974ZM921.817 553.974H940.544V566.424H921.817V553.974ZM894.114 591.052H1133.59V610.376H894.114V591.052ZM890.416 614.074V587.354H1137.29V614.074H890.416ZM898.474 594.488H917.201V606.938H898.474V594.488ZM940.544 594.488H921.817V606.938H940.544V594.488ZM945.157 594.488H963.885V606.938H945.157V594.488ZM987.228 594.488H968.5V606.938H987.228V594.488ZM991.841 594.488H1010.57V606.938H991.841V594.488ZM1033.91 594.488H1015.18V606.938H1033.91V594.488ZM1038.52 594.488H1057.25V606.938H1038.52V594.488ZM1080.59 594.488H1061.87V606.938H1080.59V594.488Z" fill="#141415"/>
</svg>
