<svg width="321" height="696" viewBox="0 0 321 696" fill="none" xmlns="http://www.w3.org/2000/svg">
<path fill-rule="evenodd" clip-rule="evenodd" d="M320.362 0.728516H0.362305V695.379H320.362V0.728516ZM129.84 166.421C134.298 166.421 136.527 168.656 136.527 173.125V208.876C136.527 213.345 134.298 215.579 129.84 215.579H117.581C113.123 215.579 110.895 213.345 110.895 208.876V173.125C110.895 168.656 113.123 166.421 117.581 166.421H129.84ZM151.237 225.969C154.803 222.394 156.586 216.696 156.586 208.876V173.125C156.586 165.304 154.803 159.644 151.237 156.143C147.745 152.568 142.099 150.78 134.298 150.78H113.123C105.322 150.78 99.6387 152.568 96.0726 156.143C92.5807 159.644 90.8347 165.304 90.8347 173.125V208.876C90.8347 216.696 92.5807 222.394 96.0726 225.969C99.6387 229.47 105.322 231.22 113.123 231.22H134.298C142.099 231.22 147.745 229.47 151.237 225.969ZM75.0271 192.9C80.3764 188.282 83.0511 182.807 83.0511 176.476V174.242C83.0511 166.421 81.268 160.761 77.7018 157.26C74.2099 153.685 68.5634 151.897 60.7624 151.897H25.1005V167.539H56.3046C60.7624 167.539 62.9913 169.773 62.9913 174.242V179.828L22.8716 208.876V230.103H83.0511V214.462H45.7175L69.6779 197.145C71.6095 195.73 73.3926 194.315 75.0271 192.9ZM204.498 231.22C192.091 231.22 178.346 230.475 163.264 228.986V213.903C179.684 215.021 191.942 215.579 200.041 215.579C201.749 215.579 203.087 215.095 204.053 214.127C205.093 213.084 205.613 211.706 205.613 209.993V205.524C205.613 201.055 203.384 198.821 198.926 198.821H175.523V183.18H196.697C201.155 183.18 203.384 180.945 203.384 176.476V174.242C203.384 169.773 201.155 167.539 196.697 167.539H164.379V151.897H202.27C209.551 151.897 214.9 153.573 218.317 156.925C221.735 160.202 223.444 165.23 223.444 172.007C223.444 176.476 222.404 180.126 220.323 182.956C218.317 185.712 215.643 187.649 212.299 188.766C218.317 190.404 222.404 194.426 224.558 200.832C225.301 203.141 225.673 205.822 225.673 208.876V209.993C225.673 217.292 223.964 222.655 220.546 226.081C217.129 229.507 211.779 231.22 204.498 231.22ZM269.175 215.579C262.934 215.579 252.161 215.021 236.856 213.903V228.986C251.195 230.475 263.454 231.22 273.633 231.22C280.914 231.22 286.263 229.507 289.68 226.081C293.098 222.655 294.807 217.292 294.807 209.993V170.89C294.807 164.112 293.098 159.085 289.68 155.808C286.263 152.456 280.914 150.78 273.633 150.78H252.458C245.177 150.78 239.828 152.456 236.41 155.808C232.993 159.085 231.284 164.112 231.284 170.89V185.414C231.284 190.479 232.807 194.538 235.853 197.592C238.899 200.646 242.948 202.173 248.001 202.173H255.802C261.225 202.173 267.54 201.428 274.747 199.938V209.993C274.747 211.706 274.227 213.084 273.187 214.127C272.221 215.095 270.884 215.579 269.175 215.579ZM274.747 185.414C270.066 186.159 265.609 186.531 261.374 186.531H255.244C254.13 186.531 253.201 186.159 252.458 185.414C251.715 184.669 251.344 183.738 251.344 182.621V173.125C251.344 168.656 253.573 166.421 258.03 166.421H268.06C272.518 166.421 274.747 168.656 274.747 173.125V185.414ZM136.879 267.11C136.879 262.675 134.644 260.457 130.172 260.457H117.875C113.404 260.457 111.168 262.675 111.168 267.11V302.595C111.168 307.03 113.404 309.248 117.875 309.248H130.172C134.644 309.248 136.879 307.03 136.879 302.595V267.11ZM157.001 302.595C157.001 310.357 155.213 316.012 151.636 319.561C148.133 323.035 142.469 324.772 134.644 324.772H113.404C105.578 324.772 99.877 323.035 96.2998 319.561C92.797 316.012 91.0457 310.357 91.0457 302.595V267.11C91.0457 259.348 92.797 253.73 96.2998 250.255C99.877 246.707 105.578 244.933 113.404 244.933H134.644C142.469 244.933 148.133 246.707 151.636 250.255C155.213 253.73 157.001 259.348 157.001 267.11V302.595ZM83.2379 270.437C83.2379 276.721 80.5549 282.154 75.189 286.738C73.5495 288.142 71.7608 289.547 69.8231 290.951L45.7884 308.139H83.2379V323.663H22.8716V302.595L63.1158 273.764V268.219C63.1158 263.784 60.88 261.566 56.4084 261.566H25.1074V246.042H60.88C68.7052 246.042 74.3692 247.816 77.872 251.364C81.4492 254.839 83.2379 260.457 83.2379 268.219V270.437ZM163.7 308.139H205.062V323.663H225.184V308.139H233.01V292.615H225.184V275.981H205.062V292.615H186.058L212.887 246.042H190.53L163.7 292.615V308.139ZM277.769 324.772C265.323 324.772 251.536 324.033 236.407 322.555V307.585C252.877 308.694 265.174 309.248 273.297 309.248C275.011 309.248 276.353 308.767 277.322 307.806C278.365 306.771 278.887 305.404 278.887 303.704V299.268C278.887 294.832 276.651 292.615 272.179 292.615H248.704V277.09H269.944C274.415 277.09 276.651 274.873 276.651 270.437V268.219C276.651 263.784 274.415 261.566 269.944 261.566H237.525V246.042H275.533C282.837 246.042 288.203 247.705 291.631 251.031C295.059 254.284 296.773 259.274 296.773 266.001C296.773 270.437 295.73 274.059 293.643 276.868C291.631 279.604 288.948 281.526 285.594 282.635C291.631 284.261 295.73 288.253 297.891 294.611C298.636 296.902 299.009 299.564 299.009 302.595V303.704C299.009 310.948 297.295 316.271 293.867 319.671C290.438 323.072 285.073 324.772 277.769 324.772ZM88.4595 88.185C88.3776 88.1773 88.3084 88.1729 88.2933 88.1729L75.9941 88.1916C75.5153 88.2032 75.4655 88.2539 75.222 88.5013L75.2195 88.5038L75.1713 88.5527L75.144 88.58L64.6942 99.7244C64.49 99.9417 64.3763 100.229 64.3763 100.527V127.204C64.3763 127.535 64.5159 127.85 64.7608 128.072L75.1933 137.535C75.4089 137.731 75.6895 137.839 75.9806 137.839H88.6853L89.3205 137.787C89.5953 137.764 89.8533 137.645 90.0491 137.451L99.5114 128.067C99.7332 127.847 99.858 127.548 99.858 127.235V100.527C99.858 100.229 99.7444 99.9417 99.5402 99.7244L89.0036 88.4996C88.8569 88.3435 88.6728 88.2049 88.4595 88.185ZM88.6844 100.472C88.6849 99.8247 88.1601 99.2996 87.5126 99.2996H76.72C76.0732 99.2996 75.5487 99.8237 75.5482 100.47L75.5292 125.54C75.5287 126.187 76.0535 126.712 76.701 126.712H87.4936C88.1404 126.712 88.6649 126.188 88.6654 125.541L88.6844 100.472ZM103.435 127.201C103.435 127.533 103.576 127.85 103.824 128.073L114.274 137.452C114.489 137.645 114.767 137.751 115.056 137.751H127.469C127.765 137.751 128.05 137.639 128.267 137.438L137.632 128.743C138.412 128.018 137.899 126.712 136.834 126.712H115.779C115.131 126.712 114.607 126.188 114.607 125.54L114.608 100.517C114.608 99.8703 115.132 99.3456 115.779 99.3456H136.861C137.923 99.3456 138.437 98.0469 137.664 97.3199L128.268 88.4907C128.051 88.2865 127.764 88.1729 127.465 88.1729H115.114C114.791 88.1729 114.482 88.3065 114.261 88.5422L103.753 99.7244C103.548 99.9417 103.435 100.229 103.435 100.527V127.201ZM220.049 100.527C220.049 100.229 220.163 99.9417 220.367 99.7244L230.875 88.5422C231.096 88.3065 231.405 88.1729 231.729 88.1729H255.263C255.91 88.1729 256.434 88.6975 256.434 89.3446V112.06C256.434 112.066 256.439 112.07 256.444 112.07C256.448 112.07 256.451 112.072 256.452 112.075C256.453 112.076 256.453 112.078 256.453 112.08C256.453 112.082 256.452 112.084 256.45 112.086L244.916 122.925C244.699 123.129 244.412 123.243 244.114 123.243H232.394C231.747 123.243 231.222 123.767 231.222 124.415V136.655C231.222 137.717 229.923 138.231 229.196 137.457L220.367 128.062C220.163 127.844 220.049 127.557 220.049 127.259V100.527ZM245.262 100.517C245.262 99.8703 244.737 99.3456 244.09 99.3456H232.394C231.747 99.3456 231.222 99.8703 231.222 100.517V110.898C231.222 111.545 231.747 112.07 232.394 112.07H244.09C244.737 112.07 245.262 111.545 245.262 110.898V100.517ZM214.446 137.462C215.173 138.236 216.472 137.721 216.472 136.66L216.467 88.9007L216.467 88.8538C216.47 88.4802 216.169 88.1753 215.796 88.1729L192.877 88.1776C192.552 88.1777 192.241 88.3129 192.02 88.551L181.889 99.4335C181.687 99.6504 181.575 99.9357 181.575 100.232V127.259C181.575 127.557 181.689 127.844 181.893 128.062L190.7 137.434C191.43 138.211 192.734 137.689 192.726 136.623L192.639 124.923C192.634 124.272 193.16 123.743 193.811 123.743L204.128 123.743C204.775 123.743 205.299 124.267 205.299 124.914V127.264C205.299 127.562 205.413 127.849 205.617 128.066L214.446 137.462ZM192.539 111.407C192.544 112.05 193.067 112.57 193.711 112.57H204.128C204.775 112.57 205.299 112.045 205.299 111.398V100.517C205.299 99.8703 204.775 99.3456 204.128 99.3456H193.63C192.98 99.3456 192.454 99.8756 192.459 100.526L192.539 111.407ZM153.79 126.718C153.79 127.037 153.664 127.343 153.439 127.569L143.677 137.393C142.917 138.157 141.612 137.619 141.612 136.541V89.3829C141.612 88.3052 142.917 87.7672 143.677 88.5317L153.79 98.7083L159.525 104.222C159.993 104.671 160.732 104.671 161.199 104.222L166.935 98.7091L177.048 88.5318C177.808 87.7673 179.112 88.3053 179.112 89.3831V136.541C179.112 137.619 177.808 138.157 177.048 137.393L167.286 127.569C167.061 127.343 166.935 127.037 166.935 126.718V113.875C166.935 113.208 166.394 112.667 165.727 112.667H154.998C154.331 112.667 153.79 113.208 153.79 113.875V126.718ZM60.7804 112.061C60.7804 112.063 60.7811 112.065 60.7823 112.066C60.7829 112.067 60.7837 112.068 60.7846 112.069C60.7861 112.07 60.7879 112.07 60.7899 112.07C60.7985 112.07 60.8027 112.081 60.7964 112.087L49.2623 122.925C49.045 123.129 48.7581 123.243 48.4599 123.243H36.7396C36.0924 123.243 35.5678 123.768 35.5678 124.415V136.655C35.5678 137.717 34.2691 138.231 33.5421 137.458L24.7129 128.062C24.5087 127.844 24.395 127.557 24.395 127.259V100.527C24.395 100.229 24.5087 99.9418 24.7129 99.7245L35.2322 88.4859C35.2346 88.4834 35.2356 88.4822 35.2363 88.4812C35.2375 88.4798 35.2381 88.479 35.2421 88.4755C35.386 88.3481 35.7392 88.184 35.9314 88.1795C36.0969 88.1756 36.2527 88.1733 36.2591 88.1733L59.6086 88.173C60.2557 88.173 60.7804 88.6976 60.7804 89.3448V112.061ZM36.7396 99.3458C36.0924 99.3458 35.5678 99.8704 35.5678 100.518V110.898C35.5678 111.545 36.0924 112.07 36.7396 112.07H48.4358C49.0829 112.07 49.6076 111.545 49.6076 110.898V100.518C49.6076 99.8704 49.0829 99.3458 48.4358 99.3458H36.7396ZM260.42 128.073C260.172 127.85 260.03 127.533 260.03 127.201V100.527C260.03 100.229 260.144 99.9417 260.348 99.7244L270.856 88.5422C271.078 88.3065 271.387 88.1729 271.71 88.1729H284.061C284.359 88.1729 284.646 88.2865 284.863 88.4907L294.259 97.3199C295.033 98.0469 294.518 99.3456 293.457 99.3456H272.375C271.728 99.3456 271.203 99.8703 271.203 100.517L271.203 125.54C271.202 126.188 271.727 126.712 272.374 126.712H293.43C294.495 126.712 295.008 128.018 294.227 128.743L284.862 137.438C284.646 137.639 284.361 137.751 284.065 137.751H271.652C271.363 137.751 271.084 137.645 270.869 137.452L260.42 128.073ZM290.555 359.342H26.6646V380.636H290.555V359.342ZM22.5894 355.267V384.711H294.63V355.267H22.5894ZM52.1059 363.129H31.4688V376.848H52.1059V363.129ZM57.1904 363.129H77.8275V376.848H57.1904V363.129ZM103.549 363.129H82.9117V376.848H103.549V363.129ZM108.633 363.129H129.27V376.848H108.633V363.129ZM26.6646 403.987H290.555V425.28H26.6646V403.987ZM22.5894 429.356V399.911H294.631V429.356H22.5894ZM31.4689 407.774H52.1059V421.493H31.4689V407.774ZM77.8275 407.774H57.1905V421.493H77.8275V407.774ZM82.9118 407.774H103.549V421.493H82.9118V407.774ZM129.27 407.774H108.633V421.493H129.27V407.774ZM134.354 407.774H154.991V421.493H134.354V407.774ZM180.713 407.774H160.076V421.493H180.713V407.774ZM185.797 407.774H206.434V421.493H185.797V407.774ZM26.6646 448.632H290.555V469.925H26.6646V448.632ZM22.5894 474.001V444.556H294.631V474.001H22.5894ZM31.4689 452.419H52.1059V466.138H31.4689V452.419ZM77.8275 452.419H57.1905V466.138H77.8275V452.419ZM82.9118 452.419H103.549V466.138H82.9118V452.419ZM129.27 452.419H108.633V466.138H129.27V452.419ZM134.354 452.419H154.991V466.138H134.354V452.419ZM180.713 452.419H160.076V466.138H180.713V452.419ZM185.797 452.419H206.434V466.138H185.797V452.419ZM232.155 452.419H211.518V466.138H232.155V452.419ZM237.24 452.419H257.877V466.138H237.24V452.419ZM283.598 452.419H262.961V466.138H283.598V452.419ZM290.555 493.276H26.6646V514.57H290.555V493.276ZM22.5894 489.201V518.646H294.631V489.201H22.5894ZM52.1059 497.064H31.4689V510.783H52.1059V497.064ZM57.1905 497.064H77.8275V510.783H57.1905V497.064ZM103.549 497.064H82.9118V510.783H103.549V497.064ZM108.633 497.064H129.27V510.783H108.633V497.064ZM154.991 497.064H134.354V510.783H154.991V497.064ZM290.555 537.921H26.6646V559.215H290.555V537.921ZM22.5894 533.846V563.29H294.631V533.846H22.5894ZM52.1059 541.709H31.4689V555.428H52.1059V541.709ZM57.1905 541.709H77.8275V555.428H57.1905V541.709ZM26.6646 582.566H290.555V603.86H26.6646V582.566ZM22.5894 607.935V578.491H294.631V607.935H22.5894ZM31.4689 586.354H52.1059V600.073H31.4689V586.354ZM77.8275 586.354H57.1905V600.073H77.8275V586.354ZM82.9118 586.354H103.549V600.073H82.9118V586.354ZM129.27 586.354H108.633V600.073H129.27V586.354ZM134.354 586.354H154.991V600.073H134.354V586.354ZM180.713 586.354H160.076V600.073H180.713V586.354ZM185.797 586.354H206.434V600.073H185.797V586.354ZM232.155 586.354H211.518V600.073H232.155V586.354Z" fill="#141415"/>
</svg>
