<svg width="1696" height="844" viewBox="0 0 1696 844" fill="none" xmlns="http://www.w3.org/2000/svg">
<path fill-rule="evenodd" clip-rule="evenodd" d="M7.0918 0.950195H0.0917969V843.454H7.0918H1685.46H1695.51V0.950195H1685.46H7.0918ZM994.022 252.025C994.022 251.279 994.307 250.561 994.818 250.017L1021.12 222.024C1021.68 221.434 1022.45 221.1 1023.26 221.1H1082.17C1083.79 221.1 1085.1 222.413 1085.1 224.033V280.897C1085.1 280.91 1085.12 280.921 1085.13 280.921C1085.14 280.921 1085.15 280.926 1085.15 280.933C1085.15 280.937 1085.15 280.941 1085.15 280.945C1085.15 280.951 1085.15 280.957 1085.14 280.962L1056.27 308.094C1055.73 308.605 1055.01 308.89 1054.26 308.89H1024.92C1023.3 308.89 1021.99 310.203 1021.99 311.823V342.464C1021.99 345.122 1018.74 346.41 1016.92 344.473L994.818 320.953C994.307 320.409 994.022 319.69 994.022 318.944V252.025ZM1057.14 252.002C1057.14 250.382 1055.82 249.069 1054.2 249.069H1024.92C1023.3 249.069 1021.99 250.382 1021.99 252.002V277.988C1021.99 279.608 1023.3 280.921 1024.92 280.921H1054.2C1055.82 280.921 1057.14 279.608 1057.14 277.988V252.002ZM664.338 221.3C664.269 221.295 664.22 221.293 664.202 221.293L633.414 221.34C632.215 221.369 632.09 221.496 631.481 222.115C631.421 222.176 631.356 222.241 631.286 222.312L605.127 250.21C604.616 250.754 604.331 251.472 604.331 252.218V318.999C604.331 319.827 604.681 320.616 605.294 321.172L631.409 344.861C631.949 345.35 632.651 345.621 633.38 345.621H665.183L666.773 345.49C667.461 345.433 668.107 345.135 668.597 344.649L692.284 321.159C692.839 320.609 693.152 319.859 693.152 319.077V252.218C693.152 251.472 692.867 250.754 692.356 250.21L665.98 222.111C665.613 221.72 665.152 221.373 664.618 221.323C664.511 221.313 664.413 221.305 664.338 221.3ZM665.181 252.082C665.182 250.461 663.869 249.146 662.248 249.146H635.231C633.612 249.146 632.299 250.458 632.297 252.077L632.25 314.832C632.249 316.453 633.562 317.768 635.183 317.768H662.2C663.819 317.768 665.132 316.456 665.133 314.837L665.181 252.082ZM660.97 409.579C660.97 403.267 657.821 400.111 651.525 400.111H634.21C627.913 400.111 624.765 403.267 624.765 409.579V460.077C624.765 466.389 627.913 469.545 634.21 469.545H651.525C657.821 469.545 660.97 466.389 660.97 460.077V409.579ZM689.304 460.077C689.304 471.123 686.785 479.171 681.748 484.221C676.816 489.166 668.84 491.638 657.821 491.638H627.913C616.894 491.638 608.866 489.166 603.829 484.221C598.897 479.171 596.431 471.123 596.431 460.077V409.579C596.431 398.533 598.897 390.537 603.829 385.593C608.866 380.543 616.894 378.018 627.913 378.018H657.821C668.84 378.018 676.816 380.543 681.748 385.593C686.785 390.537 689.304 398.533 689.304 409.579V460.077ZM585.436 414.313C585.436 423.256 581.659 430.988 574.103 437.511C571.794 439.509 569.276 441.508 566.547 443.507L532.703 467.967H585.436V490.06H500.434V460.077L557.102 419.047V411.157C557.102 404.845 553.954 401.689 547.658 401.689H503.582V379.596H553.954C564.973 379.596 572.948 382.121 577.881 387.171C582.918 392.115 585.436 400.111 585.436 411.157V414.313ZM698.736 488.482C720.039 490.586 739.453 491.638 756.978 491.638C767.263 491.638 774.818 489.218 779.646 484.379C784.473 479.539 786.887 471.965 786.887 461.655V460.077C786.887 455.763 786.362 451.976 785.313 448.715C782.269 439.667 776.498 433.986 767.997 431.672C772.72 430.094 776.497 427.358 779.331 423.466C782.269 419.468 783.738 414.313 783.738 408.001C783.738 398.427 781.325 391.326 776.497 386.697C771.67 381.963 764.115 379.596 753.83 379.596H700.31V401.689H745.96C752.256 401.689 755.404 404.845 755.404 411.157V414.313C755.404 420.625 752.256 423.782 745.96 423.782H716.051V445.874H749.108C755.404 445.874 758.553 449.03 758.553 455.343V461.655C758.553 464.075 757.818 466.021 756.349 467.494C754.985 468.861 753.096 469.545 750.682 469.545C739.243 469.545 721.928 468.756 698.736 467.178V488.482ZM802.683 467.178C824.301 468.756 839.518 469.545 848.333 469.545C850.746 469.545 852.635 468.861 854 467.494C855.469 466.021 856.203 464.075 856.203 461.655V447.452C846.024 449.556 837.104 450.608 829.443 450.608H818.424C811.288 450.608 805.569 448.452 801.267 444.138C796.964 439.825 794.813 434.091 794.813 426.938V406.423C794.813 396.849 797.226 389.748 802.054 385.119C806.881 380.385 814.437 378.018 824.721 378.018H854.629C864.913 378.018 872.469 380.385 877.297 385.119C882.124 389.748 884.537 396.849 884.537 406.423V461.655C884.537 471.965 882.124 479.539 877.297 484.379C872.469 489.218 864.913 491.638 854.629 491.638C840.252 491.638 822.937 490.586 802.683 488.482V467.178ZM837.314 428.516C843.296 428.516 849.592 427.99 856.203 426.938V409.579C856.203 403.267 853.055 400.111 846.759 400.111H832.591C826.295 400.111 823.147 403.267 823.147 409.579V422.992C823.147 424.571 823.672 425.886 824.721 426.938C825.77 427.99 827.082 428.516 828.656 428.516H837.314ZM574.331 582.906C581.911 576.432 585.7 568.757 585.7 559.882V556.749C585.7 545.785 583.174 537.849 578.121 532.942C573.173 527.93 565.173 525.424 554.12 525.424H503.592V547.352H547.804C554.12 547.352 557.278 550.484 557.278 556.749V564.581L500.434 605.304V635.063H585.7V613.135H532.804L566.752 588.858C569.489 586.874 572.016 584.89 574.331 582.906ZM661.468 555.183C661.468 548.918 658.31 545.785 651.994 545.785H634.625C628.309 545.785 625.151 548.918 625.151 555.183V605.304C625.151 611.569 628.309 614.701 634.625 614.701H651.994C658.31 614.701 661.468 611.569 661.468 605.304V555.183ZM689.89 605.304C689.89 616.268 687.363 624.256 682.311 629.268C677.363 634.176 669.363 636.629 658.31 636.629H628.309C617.256 636.629 609.203 634.176 604.15 629.268C599.202 624.256 596.729 616.268 596.729 605.304V555.183C596.729 544.219 599.202 536.283 604.15 531.375C609.203 526.363 617.256 523.857 628.309 523.857H658.31C669.363 523.857 677.363 526.363 682.311 531.375C687.363 536.283 689.89 544.219 689.89 555.183V605.304ZM699.352 613.135H757.775V635.063H786.197V613.135H797.25V591.207H786.197V567.713H757.775V591.207H730.932L768.828 525.424H737.248L699.352 591.207V613.135ZM860.472 636.629C842.892 636.629 823.418 635.585 802.048 633.497V612.352C825.312 613.918 842.682 614.701 854.156 614.701C856.577 614.701 858.472 614.023 859.84 612.665C861.314 611.203 862.051 609.272 862.051 606.87V600.605C862.051 594.34 858.893 591.207 852.577 591.207H819.417V569.279H849.419C855.735 569.279 858.893 566.147 858.893 559.882V556.749C858.893 550.484 855.735 547.352 849.419 547.352H803.627V525.424H857.314C867.63 525.424 875.209 527.773 880.051 532.472C884.893 537.066 887.315 544.115 887.315 553.617C887.315 559.882 885.841 564.998 882.893 568.966C880.051 572.83 876.262 575.545 871.525 577.111C880.051 579.408 885.841 585.047 888.894 594.027C889.946 597.264 890.473 601.023 890.473 605.304V606.87C890.473 617.103 888.052 624.621 883.209 629.424C878.367 634.228 870.788 636.629 860.472 636.629ZM702.105 318.99C702.105 319.823 702.459 320.617 703.079 321.173L729.237 344.651C729.776 345.134 730.474 345.402 731.197 345.402H762.27C763.011 345.402 763.724 345.122 764.266 344.618L787.709 322.851C789.663 321.037 788.38 317.768 785.714 317.768H733.005C731.385 317.768 730.072 316.454 730.072 314.834L730.073 252.195C730.073 250.575 731.387 249.261 733.007 249.261H785.781C788.438 249.261 789.726 246.01 787.789 244.191L764.269 222.089C763.725 221.577 763.007 221.293 762.26 221.293H731.342C730.533 221.293 729.759 221.627 729.205 222.217L702.901 250.21C702.389 250.754 702.105 251.472 702.105 252.218V318.99ZM979.998 344.678C981.818 346.615 985.069 345.327 985.069 342.669L985.056 223.115L985.057 222.997C985.064 222.062 984.311 221.299 983.375 221.293L926.005 221.305C925.19 221.305 924.413 221.643 923.858 222.239L898.498 249.482C897.993 250.024 897.712 250.738 897.712 251.48V319.137C897.712 319.883 897.997 320.602 898.508 321.146L920.555 344.607C922.382 346.551 925.645 345.245 925.625 342.577L925.409 313.289C925.397 311.66 926.713 310.334 928.342 310.334L954.167 310.334C955.787 310.334 957.101 311.647 957.101 313.267V319.149C957.101 319.895 957.385 320.614 957.896 321.158L979.998 344.678ZM925.158 279.454C925.17 281.065 926.48 282.365 928.091 282.365H954.167C955.787 282.365 957.101 281.052 957.101 279.432V252.195C957.101 250.575 955.787 249.261 954.167 249.261H927.89C926.261 249.261 924.945 250.588 924.957 252.216L925.158 279.454ZM828.159 317.782C828.159 318.58 827.843 319.346 827.28 319.913L802.842 344.503C800.94 346.417 797.674 345.07 797.674 342.372V224.322C797.674 221.624 800.94 220.277 802.842 222.191L828.159 247.666L842.516 261.468C843.686 262.593 845.535 262.593 846.706 261.468L861.063 247.668L886.38 222.191C888.282 220.278 891.548 221.624 891.548 224.322V342.372C891.548 345.07 888.282 346.417 886.38 344.503L861.942 319.913C861.379 319.346 861.063 318.58 861.063 317.782V285.632C861.063 283.963 859.71 282.609 858.04 282.609H831.182C829.512 282.609 828.159 283.963 828.159 285.632V317.782ZM595.33 281.092C595.33 281.105 595.34 281.116 595.354 281.116C595.375 281.116 595.386 281.142 595.37 281.157L566.497 308.289C565.953 308.8 565.235 309.085 564.488 309.085H535.149C533.529 309.085 532.216 310.398 532.216 312.018V342.659C532.216 345.317 528.965 346.605 527.145 344.668L505.043 321.148C504.532 320.604 504.247 319.885 504.247 319.139V252.22C504.247 251.474 504.532 250.756 505.043 250.212L531.376 222.078C531.382 222.072 531.384 222.069 531.386 222.067C531.387 222.065 531.388 222.064 531.39 222.062L531.392 222.06C531.394 222.058 531.396 222.056 531.4 222.052C531.761 221.733 532.645 221.322 533.126 221.311C533.54 221.301 533.93 221.296 533.946 221.296L592.396 221.295C594.016 221.295 595.33 222.608 595.33 224.228V281.092ZM535.149 249.264C533.529 249.264 532.216 250.577 532.216 252.197V278.183C532.216 279.803 533.529 281.116 535.149 281.116H564.428C566.048 281.116 567.361 279.803 567.361 278.183V252.197C567.361 250.577 566.048 249.264 564.428 249.264H535.149ZM1095.08 321.173C1094.46 320.617 1094.11 319.823 1094.11 318.99V252.218C1094.11 251.472 1094.39 250.754 1094.9 250.21L1121.21 222.217C1121.76 221.627 1122.54 221.293 1123.35 221.293H1154.26C1155.01 221.293 1155.73 221.577 1156.27 222.089L1179.79 244.191C1181.73 246.01 1180.44 249.261 1177.78 249.261H1125.01C1123.39 249.261 1122.08 250.575 1122.08 252.195L1122.07 314.834C1122.07 316.454 1123.39 317.768 1125.01 317.768H1177.72C1180.38 317.768 1181.67 321.037 1179.71 322.851L1156.27 344.618C1155.73 345.122 1155.01 345.402 1154.27 345.402H1123.2C1122.48 345.402 1121.78 345.134 1121.24 344.651L1095.08 321.173ZM1176.48 382.257H901.953V404.41H1176.48V382.257ZM897.713 378.018V408.65H1180.72V378.018H897.713ZM928.418 386.197H906.949V400.469H928.418V386.197ZM933.709 386.197H955.178V400.469H933.709V386.197ZM981.935 386.197H960.466V400.469H981.935V386.197ZM987.226 386.197H1008.69V400.469H987.226V386.197ZM901.951 428.702H1176.48V450.855H901.951V428.702ZM897.711 455.094V424.463H1180.72V455.094H897.711ZM906.948 432.643H928.418V446.915H906.948V432.643ZM955.178 432.643H933.708V446.915H955.178V432.643ZM960.465 432.643H981.934V446.915H960.465V432.643ZM1008.69 432.643H987.225V446.915H1008.69V432.643ZM1013.98 432.643H1035.45V446.915H1013.98V432.643ZM1062.21 432.643H1040.74V446.915H1062.21V432.643ZM1067.5 432.643H1088.97V446.915H1067.5V432.643ZM901.951 475.148H1176.48V497.3H901.951V475.148ZM897.711 501.54V470.908H1180.72V501.54H897.711ZM906.948 479.087H928.418V493.359H906.948V479.087ZM955.178 479.087H933.708V493.359H955.178V479.087ZM960.465 479.087H981.934V493.359H960.465V479.087ZM1008.69 479.087H987.225V493.359H1008.69V479.087ZM1013.98 479.087H1035.45V493.359H1013.98V479.087ZM1062.21 479.087H1040.74V493.359H1062.21V479.087ZM1067.5 479.087H1088.97V493.359H1067.5V479.087ZM1115.73 479.087H1094.26V493.359H1115.73V479.087ZM1121.02 479.087H1142.49V493.359H1121.02V479.087ZM1169.24 479.087H1147.77V493.359H1169.24V479.087ZM1176.48 521.592H901.951V543.745H1176.48V521.592ZM897.711 517.353V547.984H1180.72V517.353H897.711ZM928.418 525.532H906.948V539.804H928.418V525.532ZM933.708 525.532H955.178V539.804H933.708V525.532ZM981.934 525.532H960.465V539.804H981.934V525.532ZM987.225 525.532H1008.69V539.804H987.225V525.532ZM1035.45 525.532H1013.98V539.804H1035.45V525.532ZM1176.48 568.037H901.951V590.189H1176.48V568.037ZM897.711 563.797V594.429H1180.72V563.797H897.711ZM928.418 571.977H906.948V586.249H928.418V571.977ZM933.708 571.977H955.178V586.249H933.708V571.977ZM901.951 614.482H1176.48V636.635H901.951V614.482ZM897.711 640.875V610.243H1180.72V640.875H897.711ZM906.948 618.422H928.418V632.694H906.948V618.422ZM955.178 618.422H933.708V632.694H955.178V618.422ZM960.465 618.422H981.934V632.694H960.465V618.422ZM1008.69 618.422H987.225V632.694H1008.69V618.422ZM1013.98 618.422H1035.45V632.694H1013.98V618.422ZM1062.21 618.422H1040.74V632.694H1062.21V618.422ZM1067.5 618.422H1088.97V632.694H1067.5V618.422ZM1115.73 618.422H1094.26V632.694H1115.73V618.422Z" fill="#141415"/>
</svg>
